<svg xmlns="http://www.w3.org/2000/svg" style="display:none">
	<symbol id="menu" viewBox="0 0 1024 1024">
		<path d="M192.037 287.953h640.124c17.673 0 32-14.327 32-32s-14.327-32-32-32H192.037c-17.673 0-32 14.327-32 32s14.327 32 32 32zM192.028 543.17h638.608c17.673 0 32-14.327 32-32s-14.327-32-32-32H192.028c-17.673 0-32 14.327-32 32s14.327 32 32 32zM832.161 735.802H192.037c-17.673 0-32 14.327-32 32s14.327 32 32 32h640.124c17.673 0 32-14.327 32-32s-14.327-32-32-32z"/>
	</symbol>
	<symbol id="back" viewBox="0 0 1024 1024">
		<path d="M435.346286 680.886857h405.138285a33.792 33.792 0 0 1 36.132572 33.645714v134.948572a33.645714 33.645714 0 0 1-36.132572 33.718857H623.030857a33.718857 33.718857 0 1 0 0 67.510857h216.795429A105.691429 105.691429 0 0 0 950.857143 849.481143V714.605714a105.179429 105.179429 0 0 0-109.714286-101.229714H437.028571l92.16-85.284571a31.378286 31.378286 0 0 0-0.365714-46.884572 39.204571 39.204571 0 0 0-51.2 0L325.266286 621.860571a27.648 27.648 0 0 0-8.118857 8.411429 31.378286 31.378286 0 0 0 4.754285 42.130286l3.657143 2.706285 152.576 140.653715c14.628571 13.165714 36.790857 13.165714 51.346286 0a31.012571 31.012571 0 0 0 10.459428-23.625143 31.378286 31.378286 0 0 0-10.459428-23.552l-94.208-87.771429zM877.933714 174.957714a37.083429 37.083429 0 0 0-42.203428-33.792h-645.851429a37.814857 37.814857 0 0 0-43.885714 33.792v674.523429c3.657143 20.992 22.747429 35.620571 43.885714 33.718857h210.066286a33.718857 33.718857 0 1 1 0 67.510857H189.952A111.030857 111.030857 0 0 1 73.142857 849.481143V174.957714a107.52 107.52 0 0 1 118.857143-101.229714h641.389714A108.105143 108.105143 0 0 1 950.857143 174.957714V444.708571a33.718857 33.718857 0 0 1-36.790857 33.645715 33.792 33.792 0 0 1-36.132572-33.645715V174.811429z"/>
	</symbol>
	<symbol id="close" viewBox="0 0 1024 1024">
		<path d="M585.856 512l371.456-430.016c6.208-7.104 0.96-17.984-8.64-17.984h-112.896a23.36 23.36 0 0 0-17.408 7.808L512 426.496 205.632 71.808A22.912 22.912 0 0 0 188.224 64H75.328c-9.6 0-14.848 10.88-8.64 17.984L438.144 512l-371.456 430.016c-6.208 7.104-0.96 17.984 8.64 17.984h112.896a23.36 23.36 0 0 0 17.408-7.808L512 597.504l306.368 354.688a22.912 22.912 0 0 0 17.408 7.808h112.896c9.6 0 14.848-10.88 8.64-17.984L585.856 512z"/>
	</symbol>
	<symbol id="download" viewBox="0 0 1024 1024">
		<path d="M847.5 512H707.7L512 707.7 316.3 512H176.5L64.7 735.7v55.9h894.7v-55.9L847.5 512z m-83.9-167.7H567.9V120.6H456.1v223.7H260.4L512 595.9l251.6-251.6zM64.7 847.5h894.7v55.9H64.7v-55.9z"/>
	</symbol>
	<symbol id="proxy_on" viewBox="0 0 1024 1024">
		<path d="M512 85.333333a341.333333 341.333333 0 0 1 330.496 256l0.170667 0.64A341.376 341.376 0 0 1 554.666667 765.354667v12.629333c25.472 12.629333 44.501333 36.266667 50.944 64.682667h258.389333a32 32 0 0 1 0 64h-265.984a96 96 0 0 1-172.032 0H160a32 32 0 0 1 0-64h258.389333A96.170667 96.170667 0 0 1 469.333333 777.984v-12.629333a341.376 341.376 0 0 1-288-423.381334V341.333333A341.674667 341.674667 0 0 1 512 85.333333z m0 736a42.666667 42.666667 0 1 0 0 85.333334 42.666667 42.666667 0 0 0 0-85.333334z m61.568-322.389333c-19.797333 1.578667-40.32 2.389333-61.568 2.389333-21.248 0-41.813333-0.810667-61.568-2.389333 4.096 57.728 13.354667 106.922667 27.861333 147.626667 8.405333 23.637333 17.493333 40.789333 27.264 51.498666 2.474667 2.730667 4.650667 4.608 6.442667 5.674667a29.482667 29.482667 0 0 0 6.442667-5.674667c9.770667-10.666667 18.858667-27.861333 27.306666-51.498666 14.464-40.704 23.722667-89.898667 27.818667-147.626667zM789.333333 431.36c-14.933333 11.008-32.768 20.949333-53.504 29.866667-29.781333 12.757333-62.293333 22.442667-97.706666 29.141333-4.864 80.170667-19.029333 150.442667-41.045334 200.234667a277.333333 277.333333 0 0 0 192.256-259.242667z m-554.581333 0a277.333333 277.333333 0 0 0 192.256 259.242667c-22.016-49.792-36.181333-120.064-41.088-200.234667a466.944 466.944 0 0 1-97.706667-29.141333 267.434667 267.434667 0 0 1-53.461333-29.866667zM512 149.589333a29.44 29.44 0 0 0-6.442667 5.674667c-9.770667 10.666667-18.858667 27.861333-27.306666 51.498667-20.138667 56.746667-30.250667 130.005333-30.250667 219.904v7.808c20.394667 1.92 41.685333 2.858667 64 2.858666s43.605333-0.938667 64-2.858666V426.666667c0-89.898667-10.112-163.2-30.293333-219.904-8.405333-23.637333-17.493333-40.789333-27.264-51.498667A29.44 29.44 0 0 0 512 149.589333z m-85.034667 13.098667A277.333333 277.333333 0 0 0 246.186667 347.648c1.749333 6.698667 6.229333 13.738667 13.44 21.034667 12.16 12.373333 30.122667 23.594667 53.845333 33.749333A392.32 392.32 0 0 0 384 424.704c0.170667-105.557333 15.445333-199.808 42.965333-262.016z m170.069334 0C624.554667 224.896 639.829333 319.146667 640 424.704a392.32 392.32 0 0 0 70.570667-22.272c23.722667-10.154667 41.685333-21.418667 53.845333-33.749333 7.210667-7.296 11.690667-14.336 13.44-21.034667a277.333333 277.333333 0 0 0-180.821333-184.96z"/>
	</symbol>
	<symbol id="proxy_off" viewBox="0 0 1024 1024">
		<path d="M929.92 924.245333a42.666667 42.666667 0 0 1-60.330667 0l-26.453333-26.453333h-206.08a96 96 0 0 1-172.032 0H199.04a32 32 0 0 1 0-64h258.389333a96.170667 96.170667 0 0 1 50.944-64.682667v-23.338666a341.333333 341.333333 0 0 1-288-423.338667v-0.64c3.328-12.117333 7.04-23.893333 11.392-35.413333L145.493333 200.192a42.666667 42.666667 0 1 1 60.330667-60.330667l724.650667 724.650667a42.666667 42.666667 0 0 0 4.48 3.797333 32.128 32.128 0 0 1-0.128 1.536 42.666667 42.666667 0 0 1-4.906667 54.442667z m-463.872-253.141333c-21.162667-47.829333-35.114667-114.602667-40.490667-190.890667l-11.52-11.52a458.922667 458.922667 0 0 1-86.784-26.965333 267.477333 267.477333 0 0 1-53.504-29.866667 277.333333 277.333333 0 0 0 192.298667 259.242667z m89.088 9.856l2.389333-2.432c8.448-9.301333 16.426667-23.466667 23.893334-42.496l-83.114667-83.114667c4.821333 27.221333 11.136 51.925333 19.029333 74.112 8.448 23.637333 17.493333 40.789333 27.264 51.498667 2.517333 2.730667 4.693333 4.608 6.442667 5.674667a29.354667 29.354667 0 0 0 6.485333-5.674667z m224 152.832l-107.349333-107.349333a341.76 341.76 0 0 1-78.08 19.328v23.338666c25.472 12.629333 44.501333 36.266667 50.986666 64.682667h134.485334z m-228.096 64a42.666667 42.666667 0 1 0 0-85.333333 42.666667 42.666667 0 0 0 0 85.333333z m261.76-271.573333l-45.482667-45.482667a277.034667 277.034667 0 0 0 61.013334-168.874667c-14.933333 11.008-32.725333 20.949333-53.461334 29.866667-29.781333 12.757333-62.336 22.442667-97.706666 29.141333-0.384 6.186667-0.853333 12.330667-1.28 18.389334L602.538667 416l12.458666-1.066667v-7.808c0-89.898667-10.069333-163.2-30.293333-219.904-8.405333-23.637333-17.493333-40.789333-27.221333-51.498666a29.482667 29.482667 0 0 0-6.485334-5.674667 29.354667 29.354667 0 0 0-6.442666 5.674667c-9.728 10.666667-18.816 27.861333-27.264 51.498666-11.946667 33.621333-20.352 73.045333-25.258667 118.272l-56.32-56.32c7.253333-40.96 17.408-76.970667 30.293333-106.026666a277.12 277.12 0 0 0-88.618666 47.701333L331.989333 145.365333a341.333333 341.333333 0 0 1 549.546667 176.426667l0.170667 0.64a341.248 341.248 0 0 1-68.906667 303.786667z m-9.344-277.077334c7.253333-7.296 11.690667-14.336 13.44-21.034666a277.333333 277.333333 0 0 0-180.821333-184.96c27.52 62.208 42.794667 156.458667 42.965333 262.016a392.405333 392.405333 0 0 0 70.613333-22.272c23.68-10.154667 41.642667-21.418667 53.802667-33.749334z"/>
	</symbol>
	<symbol id="theme" viewBox="0 0 1024 1024">
		<path d="M512.577919 838.524162a323.851287 323.851287 0 0 1-230.51739-95.501093 323.851287 323.851287 0 0 1-95.501093-230.51739c0-87.08515 33.916614-168.93291 95.501093-230.51739a323.851287 323.851287 0 0 1 230.51739-95.501093c87.08515 0 168.96903 33.916614 230.51739 95.501093a323.851287 323.851287 0 0 1 95.501093 230.51739 323.851287 323.851287 0 0 1-95.501093 230.51739 323.851287 323.851287 0 0 1-230.51739 95.501093z m0-587.490652c-144.190758 0-261.472169 117.317531-261.472169 261.472169 0 144.190758 117.317531 261.472169 261.472169 261.472169 144.190758 0 261.472169-117.317531 261.472169-261.472169 0-144.154638-117.317531-261.472169-261.472169-261.472169zM574.812557 75.021093a61.945679 61.945679 0 1 1-123.891358 0 61.945679 61.945679 0 0 1 123.891358 0z m0 0"/>
		<path d="M143.39612 202.957884a60.031323 60.031323 0 1 0 120.062645 0 60.031323 60.031323 0 0 0-120.062645 0z m0 0M75.057213 452.221517c34.205573 0 61.945679 26.873228 61.945679 60.031323 0 33.121975-27.740106 59.995203-61.945679 60.031322-34.205573 0-61.945679-26.873228-61.945679-60.031322 0.03612-33.158095 27.740106-60.031323 61.945679-60.031323z m0 0"/>
		<path d="M160.553086 779.215238a60.031323 60.031323 0 1 1 84.881835 84.881834 60.031323 60.031323 0 0 1-84.881835-84.881834z m0 0M452.257637 950.026384a60.031323 60.031323 0 1 1 120.062645 0 60.031323 60.031323 0 0 1-120.062645 0z m0 0M777.914921 864.530511a58.694885 58.694885 0 0 1 0-84.881834 63.354356 63.354356 0 0 1 87.590829 0c24.200353 23.441834 24.200353 61.44 0 84.881834a63.354356 63.354356 0 0 1-87.590829 0z m0 0M950.062504 572.862081a59.995203 59.995203 0 1 1 0-119.990406 59.995203 59.995203 0 0 1 0 119.990406z m0 0M864.566631 245.83224a60.031323 60.031323 0 1 1-84.881834-84.881834 60.031323 60.031323 0 0 1 84.881834 84.881834z m0 0"/>
	</symbol>
	<symbol id="home" viewBox="0 0 1024 1024">
		<path d="M469.333 170.667v170.666A42.667 42.667 0 0 1 426.667 384h-256A42.667 42.667 0 0 1 128 341.333V170.667A42.667 42.667 0 0 1 170.667 128h256a42.667 42.667 0 0 1 42.666 42.667z m-42.666 298.666h-256A42.667 42.667 0 0 0 128 512v341.333A42.667 42.667 0 0 0 170.667 896h256a42.667 42.667 0 0 0 42.666-42.667V512a42.667 42.667 0 0 0-42.666-42.667zM853.333 640h-256a42.667 42.667 0 0 0-42.666 42.667v170.666A42.667 42.667 0 0 0 597.333 896h256A42.667 42.667 0 0 0 896 853.333V682.667A42.667 42.667 0 0 0 853.333 640z m0-512h-256a42.667 42.667 0 0 0-42.666 42.667V512a42.667 42.667 0 0 0 42.666 42.667h256A42.667 42.667 0 0 0 896 512V170.667A42.667 42.667 0 0 0 853.333 128z"/>
	</symbol>
	<symbol id="video" viewBox="0 0 1024 1024">
		<path d="M672.0512 657.9712m-217.6512 0a217.6512 217.6512 0 1 0 435.3024 0 217.6512 217.6512 0 1 0-435.3024 0Z" fill="#97E9FF"/>
		<path d="M930.3808 940.544H512c-236.3136 0-428.544-192.256-428.544-428.544S275.6864 83.456 512 83.456 940.544 275.712 940.544 512c0 82.5088-23.5008 162.6112-67.968 231.68l-38.7328-24.9344c39.6544-61.6192 60.6208-133.0944 60.6208-206.7456 0-210.8928-171.5712-382.464-382.464-382.464S129.536 301.1072 129.536 512 301.1072 894.464 512 894.464h418.3808v46.08z"/>
		<path d="M512 424.576c-57.9584 0-105.1136-47.1552-105.1136-105.1136S454.0416 214.3232 512 214.3232s105.1136 47.1552 105.1136 105.1136-47.1552 105.1392-105.1136 105.1392z m0-164.1728c-32.5632 0-59.0336 26.496-59.0336 59.0336s26.496 59.0336 59.0336 59.0336c32.5632 0 59.0336-26.496 59.0336-59.0336s-26.4704-59.0336-59.0336-59.0336zM512 803.5072c-57.9584 0-105.1136-47.1552-105.1136-105.1136s47.1552-105.1136 105.1136-105.1136 105.1136 47.1552 105.1136 105.1136-47.1552 105.1136-105.1136 105.1136z m0-164.1728c-32.5632 0-59.0336 26.496-59.0336 59.0336s26.496 59.0336 59.0336 59.0336c32.5632 0 59.0336-26.496 59.0336-59.0336s-26.4704-59.0336-59.0336-59.0336zM325.8368 617.1136c-57.9584 0-105.1136-47.1552-105.1136-105.1136s47.1552-105.1136 105.1136-105.1136 105.1136 47.1552 105.1136 105.1136-47.1296 105.1136-105.1136 105.1136z m0-164.1472c-32.5632 0-59.0336 26.496-59.0336 59.0336s26.496 59.0336 59.0336 59.0336c32.5632 0 59.0336-26.496 59.0336-59.0336s-26.4704-59.0336-59.0336-59.0336zM700.7232 617.1136c-57.9584 0-105.1136-47.1552-105.1136-105.1136s47.1552-105.1136 105.1136-105.1136 105.1136 47.1552 105.1136 105.1136-47.1552 105.1136-105.1136 105.1136z m0-164.1472c-32.5632 0-59.0336 26.496-59.0336 59.0336s26.496 59.0336 59.0336 59.0336c32.5632 0 59.0336-26.496 59.0336-59.0336s-26.496-59.0336-59.0336-59.0336z"/>
	</symbol>
	<symbol id="news" viewBox="0 0 1087 1024">
		<path d="M141.244212 661.850505c-16.678788 0-31.806061-11.119192-36.460606-27.79798-10.60202-39.434343-16.161616-79.90303-16.161617-120.888889C88.751282 262.464646 292.904818 58.181818 543.733101 58.181818c85.462626 0 168.339394 23.789899 240.226262 68.783839 17.713131 11.119192 23.272727 34.391919 12.153536 52.10505s-34.391919 23.272727-52.105051 12.153535C683.886636 153.858586 614.585626 134.076768 543.733101 134.076768 334.407848 133.947475 164.516939 303.838384 164.516939 513.163636c0 34.391919 4.525253 68.266667 13.70505 100.589899 5.559596 20.169697-6.593939 40.985859-26.763636 46.545455-3.10303 1.034343-6.593939 1.551515-10.214141 1.551515zM543.733101 968.274747c-85.979798 0-169.373737-24.307071-241.648485-69.30101-17.713131-11.119192-23.272727-34.391919-12.153536-52.10505 11.119192-17.713131 34.391919-23.272727 52.105051-12.153535 60.121212 37.882828 129.939394 57.664646 201.179798 57.664646 209.325253 0 379.216162-169.890909 379.216162-379.216162 0-36.848485-5.559596-73.826263-15.644445-108.735353-6.076768-20.169697 5.559596-40.985859 25.341414-47.062626 20.169697-6.076768 40.985859 5.559596 47.062626 25.341414 12.670707 42.020202 19.264646 85.979798 19.264647 130.456565 0.258586 250.828283-203.894949 455.111111-454.723232 455.111111z"/>
		<path d="M38.068454 753.389899c-13.187879 0-26.246465-7.111111-33.357576-19.781818-10.084848-18.230303-3.490909-41.50303 15.127273-51.587879L1031.167444 125.931313c18.230303-10.084848 41.50303-3.490909 51.587879 15.127273 10.084848 18.230303 3.490909 41.50303-15.127273 51.587879L56.298757 748.864646c-5.559596 2.973737-12.153535 4.525253-18.230303 4.525253zM38.068454 930.262626c-13.187879 0-26.246465-7.111111-33.357576-19.781818-10.084848-18.230303-3.490909-41.50303 15.127273-51.587879L1031.167444 302.80404c18.230303-10.084848 41.50303-3.490909 51.587879 15.127273 10.084848 18.230303 3.490909 41.50303-15.127273 51.587879L56.298757 925.737374c-5.559596 3.10303-12.153535 4.525253-18.230303 4.525252z"/>
	</symbol>
	<symbol id="article" viewBox="0 0 1024 1024">
		<path d="M638.434086 376.331088c21.187555 13.31219 21.187555 30.570249 0 51.659566-15.844873 13.31219-29.232788 30.454616-39.759539 51.659567-10.525728 23.915689-22.50148 43.766806-35.716457 59.709917-13.331633 10.525728-11.958356 22.521946 3.92745 35.754318 39.7227 29.139667 75.566046 58.316174 107.392915 87.455841 29.013801 23.836895 63.551408 41.058115 103.252619 51.699476 29.15911 0 63.580061 6.501064 103.369276 19.812231 26.440186 10.641361 46.291302 14.626115 59.544141 11.878539 7.972579-2.593058 13.283538-2.593058 15.944134 0 2.650363 5.340635 1.372254 12.035104-3.967359 19.851117-42.459021 45.197388-95.387487 72.982198-159.033039 83.508949-53.0441 5.299703-94.043886-13.158694-123.201973-55.608506-50.288337-74.142627-96.704482-123.211183-139.037637-147.164734-26.517957-13.117762-45.082778-13.117762-55.588039 0-84.959997 74.221422-166.996408 124.642788-246.499114 151.151535-13.291724 0-21.243837 2.553149-23.827685 7.893784-50.364061 15.905248-91.450828 11.918447-123.239835-11.879561-15.84692-21.24486-19.813255-47.752584-11.881608-79.444377 2.565429-8.010441 3.986801-22.521946 3.986801-43.76783-2.729158-5.301749-1.421372-9.287527 3.967358-11.957333 2.553149-2.592035 6.636141-2.592035 11.908214 0 36.985356 31.69384 84.776825 41.095977 143.024438 27.861558 68.871577-10.640338 135.177726-39.857776 198.785415-87.414908 15.913435-8.088212 18.48705-17.259082 7.894807-27.90249-23.828708-23.836895-67.497277-43.764759-131.1152-59.59326-21.303188-7.931646-29.234835-21.204951-23.780612-39.740096 2.476401-7.972579 7.894807-21.167089 15.875572-39.704281 5.235235-5.340635 7.90504-9.326413 7.90504-11.917424 15.865339-15.981996 30.511921-17.297968 43.726898-4.024663C368.175849 440.021665 386.614803 454.494285 407.850453 459.873806c21.234627 5.379521 35.860742 14.589276 43.766806 27.745924 29.060873 29.17753 51.727105 35.794228 67.632354 19.851117 10.524704-18.535145 21.10876-35.716456 31.750121-51.621705 10.621918-21.167089 9.268084-38.3484-3.946892-51.698452-10.68127-2.515287-17.278525-5.225001-19.909445-7.854899 0-2.631944 5.350868-5.340635 15.867386-8.01044 34.478256-10.561543 66.190515-14.547321 95.423303-11.954263zM503.344365 173.792185c47.65537 15.748682 75.498508 35.677571 83.373872 59.476603 0 15.904225 9.355065 23.913643 27.842115 23.913642h15.923668c7.952112 2.593058 14.530948 3.946892 19.832697 3.946892 26.487258 5.301749 46.397726 6.617721 59.698661 3.986801 2.614547 0 40.990576 5.263887 115.201765 15.788592 23.88499 2.708692 38.415938 4.062526 43.698244 4.062525 18.49626 2.7486 27.881001 13.235442 27.881001 31.770588 2.593058 37.225833-14.56881 57.000202-51.680033 59.59326-132.487454-10.565636-235.914034-22.367427-310.00038-35.639709-66.249867-2.593058-128.549771 5.301749-186.789197 23.759124-37.149085 10.603499-102.024651 22.599717-194.750519 35.794227-23.915689 5.301749-37.149085 0-39.791261-15.826454-2.642177-10.680247-3.869121-31.847336-3.869121-63.694671 5.164626-15.865339 14.414291-22.520923 27.744901-19.890002 15.915481 7.931646 50.345642 6.65456 103.320157-3.985778 68.88181-13.235442 113.885793-19.853164 135.090744-19.853163 26.605961-2.515287 47.732118-13.233396 63.609737-31.80845 10.592242-7.893784 8.018627-18.497283-7.894807-31.768541-2.700505-26.507724 21.175275-39.625486 71.557756-39.625486z"/>
	</symbol>
	<symbol id="books" viewBox="0 0 1024 1024">
		<path d="M991.904 312.448V255.872h-31.008v493.792c-144.64 23.552-276.704 44.8-407.52 66.144 0 0.48 15.04 31.52 24.928 31.648h369.088c16-0.896 42.816-44.8 44.64-70.4V312.448z"/>
		<path d="M677.056 184.256c-94.272 17.088-146.304 62.912-141.888 174.912v420.256a961.152 961.152 0 0 1 373.216-55.392l-0.288-51.2s0.288-298.624 0.288-514.24c-84.384 8.832-158.848 12.576-231.328 25.6M78.24 847.296h367.296c9.824-0.288 24.864-31.712 24.864-31.808-130.816-21.216-261.12-42.528-405.76-66.144V255.968H32v519.232c0.8 25.6 29.824 71.328 46.24 72.096"/>
		<path d="M491.52 779.264V359.072c4.576-112-47.616-157.824-141.792-174.912-72.576-12.896-146.848-16.64-231.424-25.696 0 215.52 0.288 514.144 0.288 514.144l-0.384 51.2a963.904 963.904 0 0 1 373.536 55.456m61.6 36.352z"/>
	</symbol>
	<symbol id="erate" viewBox="0 0 1024 1024">
		<path d="M512 128a378.88 378.88 0 0 1 160 36.608V224h182.912A446.976 446.976 0 0 0 512 64a446.976 446.976 0 0 0-342.976 160H258.56A382.272 382.272 0 0 1 512 128zM512 896a378.88 378.88 0 0 1-160-36.608V800H169.024A446.976 446.976 0 0 0 512 960a446.976 446.976 0 0 0 342.912-160h-89.536A381.888 381.888 0 0 1 512 896zM640 480a32 32 0 0 0 0-64H560.32l-1.024-1.088 102.4-102.4a33.472 33.472 0 0 0-47.296-47.296L512 367.68l-102.4-102.4a33.472 33.472 0 0 0-47.296 47.296l102.4 102.4-1.024 1.024H384a32 32 0 0 0 0 64h96v64H384a32 32 0 0 0 0 64h96v128a32 32 0 0 0 64 0v-128H640a32 32 0 0 0 0-64H544v-64H640zM992 608c0-59.584-40.896-109.184-96-123.456V361.856c8.832 5.504 16.192 13.12 21.632 22.144h69.888A128 128 0 0 0 896 292.544V288a32 32 0 0 0-64 0v4.544c-55.104 14.272-96 63.936-96 123.456s40.896 109.184 96 123.456v122.688a66.304 66.304 0 0 1-21.632-22.144H740.48c11.648 44.8 46.784 79.808 91.52 91.52v4.48a32 32 0 0 0 64 0v-4.48a127.808 127.808 0 0 0 96-123.52z m-191.488-192c0-23.104 12.992-42.496 31.488-53.568v107.2a62.72 62.72 0 0 1-31.488-53.632zM896 661.632V554.432c18.496 11.072 31.488 30.464 31.488 53.568s-12.992 42.496-31.488 53.632zM192 736c43.456 0 81.728-38.08 104.832-96H230.08c-10.688 19.904-23.744 32-38.08 32-20.864 0-39.232-25.344-50.88-64H192a32 32 0 0 0 0-64h-62.72a400.256 400.256 0 0 1 0-64H192a32 32 0 0 0 0-64h-50.88c11.712-38.656 30.016-64 50.88-64 14.336 0 27.392 12.16 38.08 32h66.752C273.664 326.08 235.456 288 192 288c-50.944 0-94.656 52.544-115.2 128H64a32 32 0 0 0 0 64h1.856C64.96 490.56 64 501.056 64 512s0.96 21.44 1.856 32H64a32 32 0 0 0 0 64h12.8c20.544 75.52 64.256 128 115.2 128z"/>
	</symbol>
	<symbol id="trade" viewBox="0 0 1024 1024">
		<path d="M351.4368 700.5696a27.88352 27.88352 0 0 1 1.69984 55.72608l-1.6896 0.0512H212.2752a27.88352 27.88352 0 0 1-1.69984-55.72608l1.69984-0.0512h139.1616z"/>
		<path d="M363.71456 575.1296a144.96768 144.96768 0 0 1 103.38304 43.48928 27.88352 27.88352 0 1 1-39.8336 39.05536 89.18016 89.18016 0 0 0-63.58016-26.76736c-53.76 0-97.35168 43.6736-97.35168 97.55648 0 52.96128 42.10688 96.0512 94.58688 97.51552l2.7648 0.03072 1.6896 0.0512a85.00224 85.00224 0 0 0 62.8736-22.45632 27.88352 27.88352 0 0 1 37.87776 40.93952 140.77952 140.77952 0 0 1-100.3008 37.376l-2.9184-0.14336-2.4576-0.02048c-82.01216-1.71008-148.15232-67.95264-149.85216-150.04672l-0.04096-3.24608c0-84.67456 68.54656-153.33376 153.15968-153.33376zM393.18528 184.87296a27.88352 27.88352 0 0 1 1.69984 55.72608l-1.69984 0.0512H87.04a27.88352 27.88352 0 0 1-1.69984-55.72608L87.04 184.87296h306.14528z"/>
		<path d="M146.0736 114.176a27.88352 27.88352 0 0 1 40.76544 38.01088l-1.30048 1.39264-78.76608 78.88896A27.88352 27.88352 0 0 1 65.9968 194.4576l1.31072-1.39264 78.76608-78.88896z"/>
		<path d="M67.33824 193.024a27.89376 27.89376 0 0 1 38.0416-1.26976l1.39264 1.31072 78.76608 78.87872a27.88352 27.88352 0 0 1-38.07232 40.71424l-1.39264-1.30048-78.76608-78.88896a27.88352 27.88352 0 0 1 0.03072-39.43424zM921.98912 784.19968a27.88352 27.88352 0 0 1 1.69984 55.72608l-1.69984 0.0512H629.76a27.88352 27.88352 0 0 1-1.69984-55.72608l1.69984-0.0512h292.22912z"/>
		<path d="M916.1728 791.9616a27.88352 27.88352 0 0 1 40.77568 38.02112l-1.30048 1.39264-78.76608 78.88896a27.88352 27.88352 0 0 1-40.77568-38.01088l1.30048-1.40288 78.76608-78.88896z"/>
		<path d="M837.43744 713.05216a27.89376 27.89376 0 0 1 38.05184-1.28l1.39264 1.31072 78.76608 78.87872a27.88352 27.88352 0 0 1-38.08256 40.71424l-1.39264-1.30048-78.76608-78.88896a27.88352 27.88352 0 0 1 0.03072-39.43424zM627.712 176.06656c33.35168-19.79392 77.04576-12.56448 124.6208 21.56544a27.88352 27.88352 0 1 1-32.512 45.32224c-31.232-22.40512-51.98848-25.84576-63.63136-18.92352-7.69024 4.56704-12.38016 15.5648-11.07968 23.04 1.35168 7.58784 19.4048 16.54784 39.66976 19.06688 73.75872 10.5472 105.02144 70.20544 68.42368 119.1424-34.02752 45.49632-103.81312 49.02912-167.91552 1.37216a27.88352 27.88352 0 0 1 33.28-44.75904c41.10336 30.55616 75.89888 28.79488 89.97888 9.97376 9.46176-12.65664 2.68288-25.6-31.15008-30.45376-42.06592-5.2224-80.00512-24.04352-87.21408-64.70656-5.18144-29.7472 9.34912-63.90784 37.53984-80.64z"/>
		<path d="M670.83264 129.1264a27.89376 27.89376 0 0 1 27.9552 26.07104l0.0512 1.69984 0.14336 33.03424a27.88352 27.88352 0 0 1-55.72608 1.93536l-0.0512-1.69984-0.14336-33.03424a27.88352 27.88352 0 0 1 27.77088-28.0064zM670.86336 364.25728a27.89376 27.89376 0 0 1 27.91424 26.10176l0.06144 1.69984 0.14336 43.6224a27.88352 27.88352 0 0 1-55.72608 1.87392l-0.0512-1.69984-0.14336-43.6224a27.88352 27.88352 0 0 1 27.8016-27.97568z"/>
		<path d="M671.50848 5.9904c-160.16384 0-289.9968 130.02752-289.9968 290.4064 0 160.36864 129.83296 290.4064 289.9968 290.4064s289.9968-130.03776 289.9968-290.4064c0-160.37888-129.83296-290.4064-289.9968-290.4064z m0 51.16928c131.8912 0 238.81728 107.10016 238.81728 239.22688 0 132.13696-106.93632 239.23712-238.81728 239.23712-131.8912 0-238.81728-107.10016-238.81728-239.23712 0-132.12672 106.93632-239.22688 238.81728-239.22688z"/>
		<path d="M334.82752 439.6032a25.58976 25.58976 0 1 1 5.40672 50.88256c-98.34496 10.4448-180.09088 80.5376-205.568 176.27136a239.45216 239.45216 0 0 0 90.7264 255.40608 238.46912 238.46912 0 0 0 270.47936 6.59456 239.4112 239.4112 0 0 0 103.02464-250.6752 25.58976 25.58976 0 0 1 50.03264-10.74176c25.2416 117.56544-24.48384 238.55104-125.06112 304.26112a289.64864 289.64864 0 0 1-328.51968-8.00768C98.07872 893.06112 54.29248 769.792 85.1968 653.59872c30.9248-116.21376 130.18112-201.3184 249.62048-214.00576z"/>
	</symbol>
	<symbol id="game" viewBox="0 0 1024 1024">
		<path d="M324.6 307.2c-70.9 0-128.5 57.7-128.5 128.5s57.6 128.5 128.5 128.5 128.5-57.6 128.5-128.5-57.6-128.5-128.5-128.5z m0 203.2c-41.2 0-74.7-33.5-74.7-74.7s33.5-74.7 74.7-74.7 74.7 33.5 74.7 74.7-33.5 74.7-74.7 74.7zM801.9 408.8h-74.7v-74.7c0-14.9-12-26.9-26.9-26.9-14.9 0-26.9 12-26.9 26.9v74.7h-74.7c-14.9 0-26.9 12-26.9 26.9s12 26.9 26.9 26.9h74.7v74.7c0 14.9 12 26.9 26.9 26.9 14.9 0 26.9-12 26.9-26.9v-74.7h74.7c14.9 0 26.9-12 26.9-26.9s-12-26.9-26.9-26.9z"/>
		<path d="M959.3 306.8c0-89-72.4-161.4-161.4-161.4H681.5c-25.1 0-47.9 14.2-58 36.3-11.1 24.1-35.3 39.7-61.6 39.7h-99.7c-23.5 0-46.8-16.1-59.3-41.1-10.6-21.2-33.2-34.9-57.7-34.9H225.9c-89 0-161.4 72.4-161.4 161.4v186c0 0.8 0 1.5 0.1 2.1 0 0.7-0.1 1.4-0.1 2.2v248c0 38 14.9 73.8 41.9 100.7 27.1 27 63 41.8 101.2 41.8h0.5c79-0.3 114.4-32 139.9-125.6l29.6-89.8h268.6l29.9 90.8c27.5 80.9 58.1 124.7 140.9 124.7 78.5 0 142.3-63.9 142.3-142.3V497.1c0-0.8 0-1.5-0.1-2.1 0-0.7 0.1-1.4 0.1-2.2v-186z m-53.8 185.5c-0.1 0.8-0.1 1.6-0.1 3.2 0 0.7 0 1.4 0.1 2.2v247.7c0 48.8-39.7 88.5-88.5 88.5-45.7 0-64.1-12.2-89.9-88l-35.9-109c-3.6-11-13.9-18.5-25.5-18.5H358.2c-11.6 0-21.9 7.5-25.5 18.5l-35.9 109c-0.1 0.5-0.3 0.9-0.4 1.4-22.4 82.9-43.3 86.4-88.4 86.6h-0.3c-23.9 0-46.3-9.3-63.2-26.1-16.8-16.8-26.1-39-26.1-62.6V497.8c0.1-0.7 0.1-1.5 0.1-2.2v-1c0-0.7 0-1.4-0.1-2.2V306.8c0-59.3 48.3-107.6 107.6-107.6h119.2c4.2 0 8 2.1 9.6 5.2 21.9 43.7 63 70.8 107.4 70.8h99.7c47.3 0 90.6-27.9 110.5-71 1.4-2.9 5.1-5 9.2-5h116.5c59.3 0 107.6 48.3 107.6 107.6v185.5z"/>
	</symbol>
	<symbol id="music" viewBox="0 0 1024 1024">
		<path d="M925.156124 734.947556a483.555556 483.555556 0 1 0-833.024-11.377778 32.256 32.256 0 0 0 55.978667-32.085334 419.100444 419.100444 0 1 1 722.033778 9.841778 32.256 32.256 0 0 0 55.011555 33.564445z m-165.262222-114.744889a290.133333 290.133333 0 1 0-499.825778-6.826667 32.256 32.256 0 0 0 55.978667-32.085333 225.678222 225.678222 0 1 1 388.835556 5.290666 32.256 32.256 0 1 0 55.011555 33.564445z m-155.591111-96.881778l-9.955555 338.090667a32.426667 32.426667 0 0 1-0.910223 6.599111c0.568889 4.437333 0.853333 8.931556 0.853334 13.482666 0 72.248889-70.257778 127.260444-153.6 127.260445-83.285333 0-153.486222-55.011556-153.486223-127.260445s70.200889-127.203556 153.543112-127.203555c33.962667 0 65.763556 9.102222 91.534222 24.860444L540.473458 500.280889a32.256 32.256 0 0 1 17.408-27.704889 32.085333 32.085333 0 0 1 12.743111-6.257778c3.413333-0.853333 28.444444-9.272889 39.025778-12.231111 13.539556-3.697778 27.932444-6.769778 44.487111-9.216a32.256 32.256 0 1 1 9.386666 63.772445c-13.880889 2.048-25.713778 4.551111-36.750222 7.623111-4.209778 1.137778-13.596444 4.209778-22.471111 7.054222z"/>
	</symbol>
	<symbol id="radio" viewBox="0 0 1024 1024">
		<path d="M704.380718 194.087385l167.778461-88.326564a47.156513 47.156513 0 0 0 19.718565-63.671795 47.209026 47.209026 0 0 0-63.829334-19.692308l-192.984615 101.612308c-15.491282 8.139487-25.206154 24.182154-25.179898 41.668923v310.744615a201.885538 201.885538 0 0 0-108.281435-31.37641c-111.852308 0-202.804513 90.742154-202.804513 202.279384 0 111.510974 90.978462 202.253128 202.804513 202.253129 111.799795 0 202.804513-90.742154 202.804512-202.253129V194.087385zM286.247385 410.492718c-8.612103-3.72841-18.379487-3.912205-27.096616-0.472615a154.99159 154.99159 0 0 0-86.068513 82.786461 154.361436 154.361436 0 0 0-2.126769 119.256615 35.498667 35.498667 0 0 0 65.457231 1.155283c3.754667-8.612103 3.938462-18.326974 0.498872-27.044103a84.256821 84.256821 0 0 1 1.155282-65.115897c8.979692-20.742564 25.888821-37.021538 46.998974-45.266052a35.393641 35.393641 0 0 0 20.007385-45.817436c-3.413333-8.717128-10.187487-15.753846-18.825846-19.482256zM197.973333 380.639179a35.314872 35.314872 0 0 0 19.981129-45.817435 35.498667 35.498667 0 0 0-45.948718-19.954872c-117.576205 46.132513-175.602872 179.068718-129.339077 296.356102a35.419897 35.419897 0 0 0 61.019897 9.452308c7.929436-10.003692 9.819897-23.525744 4.936205-35.314872-31.927795-81.001026 8.139487-172.845949 89.350564-204.721231z m630.941539 314.184206c28.225641 81.211077-15.018667 170.141538-96.387282 198.28841a35.47241 35.47241 0 0 1-44.635898-21.976616 35.341128 35.341128 0 0 1 21.398975-44.819692 85.149538 85.149538 0 0 0 52.670359-108.307692 35.341128 35.341128 0 0 1 22.029128-44.530872 35.47241 35.47241 0 0 1 44.950974 21.346462z m130.730666 13.180718a226.592821 226.592821 0 0 1-10.292512 174.605128 227.485538 227.485538 0 0 1-131.098257 116.237128 35.446154 35.446154 0 0 1-45.108513-21.819077 35.314872 35.314872 0 0 1 21.87159-44.977231 157.092103 157.092103 0 0 0 90.558359-80.265846c18.405744-37.651692 20.978872-81.079795 7.089231-120.621949a35.236103 35.236103 0 0 1 21.87159-44.97723 35.524923 35.524923 0 0 1 45.108512 21.79282z"/>
	</symbol>
	<symbol id="trans" viewBox="0 0 1024 1024">
		<path d="M90.352941 873.411765a60.235294 60.235294 0 0 0 60.235294 60.235294h632.470589a30.117647 30.117647 0 0 1 30.117647 30.117647v30.117647a30.117647 30.117647 0 0 1-30.117647 30.117647H120.470588a120.470588 120.470588 0 0 1-120.470588-120.470588V120.470588a120.470588 120.470588 0 0 1 120.470588-120.470588h783.058824a120.470588 120.470588 0 0 1 120.470588 120.470588v150.588236a30.117647 30.117647 0 0 1-30.117647 30.117647h-30.117647a30.117647 30.117647 0 0 1-30.117647-30.117647V150.588235a60.235294 60.235294 0 0 0-60.235294-60.235294H150.588235a60.235294 60.235294 0 0 0-60.235294 60.235294v722.82353z m843.294118-331.294118v-90.352941a30.117647 30.117647 0 0 1 30.117647-30.117647h30.117647a30.117647 30.117647 0 0 1 30.117647 30.117647v90.352941h150.588235a30.117647 30.117647 0 0 1 30.117647 30.117647v240.941177a30.117647 30.117647 0 0 1-30.117647 30.117647h-150.588235v150.588235a30.117647 30.117647 0 0 1-30.117647 30.117647h-30.117647a30.117647 30.117647 0 0 1-30.117647-30.117647v-150.588235h-150.588235a30.117647 30.117647 0 0 1-30.117648-30.117647v-240.941177a30.117647 30.117647 0 0 1 30.117648-30.117647h150.588235z m0 90.352941h-90.352941v120.470588h90.352941v-120.470588z m90.352941 0v120.470588h90.352941v-120.470588h-90.352941z m-613.496471-120.470588h82.522353L451.764706 376.470588 410.503529 512z m-27.497411 90.352941l-30.147765 99.117177a30.117647 30.117647 0 0 1-28.822588 21.353411H283.045647a30.117647 30.117647 0 0 1-28.521412-39.845647l143.841883-421.647058A30.117647 30.117647 0 0 1 426.857412 240.941176h49.814588a30.117647 30.117647 0 0 1 28.491294 20.389648l143.841882 421.647058A30.117647 30.117647 0 0 1 620.483765 722.823529h-40.990118a30.117647 30.117647 0 0 1-28.822588-21.353411L520.523294 602.352941h-137.517176z"/>
	</symbol>
	<symbol id="path" viewBox="0 0 1077 1024">
		<path d="M393.505975 626.289771c-38.291292-55.16542-69.313728-106.047408-92.158702-151.477754-23.493979-46.728356-39.070098-89.173279-46.987957-128.243377h-111.628851a27.388009 27.388009 0 0 0-26.868804 22.195969l-49.973381 269.596654 361.365952 35.046266c-10.903283-14.927114-22.32577-30.633033-33.748257-47.117758z m428.213462 85.279249l201.061732 19.470148-50.881988-247.011281c-22.32577 43.093928-51.660794 90.860692-87.485866 142.391685-21.806566 31.152237-43.483331 60.35746-62.693878 85.149448z m-772.315883 16.484726L0.468582 991.939156a27.075188 27.075188 0 0 0 26.868804 31.931043h331.641526l-46.079351-270.375459z m1027.115224 263.366206l-34.397262-167.183674-288.937001-28.037013-114.22487 132.65661-117.989099-137.069844c-0.778806-0.908607-6.749651-7.91786-16.484725-19.599949l-97.220941-9.475472 44.521739 261.28939h597.993155a27.258208 27.258208 0 0 0 26.739004-32.580048z"/>
		<path d="M553.133933 310.200999a87.485866 87.485866 0 1 0 72.349773-100.364721 87.485866 87.485866 0 0 0-72.349773 100.364721z"/>
		<path d="M600.149149 724.029915l39.3297 45.689948 39.3297-45.689948c2.466219-2.855622 61.266067-71.260743 120.84472-157.059196 85.409051-122.661934 126.815566-214.301432 126.815566-279.850932a287.119787 287.119787 0 0 0-574.239574 0c0 65.549499 41.536316 157.059196 126.815566 279.850932 59.838256 85.798454 118.638104 154.203575 121.104322 157.059196z m39.3297-620.059323c100.985169 0 183.278996 82.164026 183.278996 183.278996 0 19.470148-10.51388 79.827608-107.734821 219.882875-26.998606 38.940297-54.256813 74.505768-75.414374 101.244771-21.02776-26.479402-48.026366-61.785271-74.89517-100.465965-97.740145-140.44467-108.254025-201.061732-108.254025-220.53188-0.259602-101.244771 81.904424-183.408797 183.019394-183.408797z"/>
	</symbol>
	<symbol id="img" viewBox="0 0 1031 1024">
		<path d="M918.373699 490.650301v118.699836l-69.295343-51.676932a158.229041 158.229041 0 0 0-195.20526 4.432658l-88.793425 72.746082 2.019945 2.468822-216.779397-152.113096a140.105644 140.105644 0 0 0-168.497096 5.610959l-92.412493 74.625754V233.41589A128.855671 128.855671 0 0 1 218.266301 104.560219h402.502137a44.747397 44.747397 0 0 0 0-89.46674H221.015671A221.015671 221.015671 0 0 0 0 236.22137v566.706849a221.015671 221.015671 0 0 0 221.015671 221.015671h565.668822a221.015671 221.015671 0 0 0 221.043726-221.015671V490.650301a44.691288 44.691288 0 1 0-89.35452 0M789.518027 934.505205H218.210192a128.855671 128.855671 0 0 1-128.855671-128.771506v-119.148713l151.49589-122.375013a46.150137 46.150137 0 0 1 55.267945-1.851617l524.961315 368.247233a129.052055 129.052055 0 0 1-31.561644 3.899616m128.855672-128.771506a128.210411 128.210411 0 0 1-17.955069 65.592109l-256-179.550685 69.127014-56.614575a64.245479 64.245479 0 0 1 79.22674-1.795507l125.601315 93.674959z"/>
		<path d="M1020.942027 52.883288a42.082192 42.082192 0 0 1 0 56.334027l-20.115287 20.171397-98.500384-98.780931 20.53611-19.77863a41.829699 41.829699 0 0 1 56.109589 0z"/>
		<path d="M529.618411 404.381808L869.951123 62.983014l98.528439 98.780931-340.360767 341.31463h-98.528439z"/>
	</symbol>
	<symbol id="ocr" viewBox="0 0 1024 1024">
		<path d="M640.189 960.294l-0.131-64 254.651-0.522 1.285-255.968 64 0.322-1.605 319.515-318.2 0.653z m-256.239-0.075l-318.197-1.237 0.251-319.042 64 0.051-0.201 255.239 254.396 0.989-0.249 64zM66.004 383.837L65.53 64.399l318.728 1.829-0.367 63.999-254.265-1.459 0.378 254.975-64 0.094zM897.495 383l-0.661-252.989-254.683 0.217-0.055-64 318.569-0.271 0.829 316.876-63.999 0.167zM404.866 510.522c0 24.75-5.328 46.895-15.984 66.43-10.656 19.537-25.553 34.719-44.688 45.547-19.137 10.828-40.562 16.242-64.281 16.242-23.146 0-44.201-5.242-63.164-15.727-18.965-10.484-33.717-25.207-44.258-44.172-10.543-18.963-15.812-40.418-15.812-64.367 0-25.093 5.328-47.665 15.984-67.718 10.656-20.05 25.609-35.549 44.859-46.492 19.25-10.941 41.135-16.414 65.656-16.414 23.604 0 44.714 5.242 63.336 15.727 18.619 10.484 33 25.438 43.141 44.859s15.211 41.451 15.211 66.085z m-78.719 2.062c0-20.281-3.896-36.265-11.688-47.953-7.793-11.688-18.45-17.531-31.969-17.531-14.781 0-26.297 5.615-34.547 16.844-8.25 11.231-12.375 27.1-12.375 47.609 0 20.053 4.096 35.693 12.289 46.922 8.191 11.23 19.336 16.844 33.43 16.844 8.594 0 16.328-2.52 23.203-7.562 6.875-5.041 12.203-12.26 15.984-21.656 3.782-9.396 5.673-20.566 5.673-33.517zM623.147 627.741c-20.396 7.332-43.943 11-70.641 11-26.24 0-48.872-5.012-67.891-15.039-19.021-10.025-33.545-24.291-43.57-42.797-10.028-18.504-15.039-39.846-15.039-64.023 0-26.009 5.613-49.156 16.844-69.437 11.229-20.281 27.097-35.949 47.609-47.008 20.51-11.057 44.114-16.586 70.813-16.586 21.312 0 41.938 2.578 61.875 7.734v68.578c-6.875-4.125-15.068-7.332-24.578-9.625a122.892 122.892 0 0 0-28.875-3.438c-20.168 0-36.066 5.787-47.695 17.359-11.631 11.575-17.446 27.271-17.446 47.093 0 19.709 5.814 35.264 17.446 46.664 11.629 11.402 27.184 17.102 46.664 17.102 17.988 0 36.15-4.582 54.484-13.75v66.173zM789.351 634.444l-18.391-53.109c-3.553-10.426-8.164-18.619-13.836-24.578-5.672-5.957-11.832-8.938-18.477-8.938h-2.922v86.625h-74.25V387.975h98.656c34.488 0 59.955 5.645 76.398 16.93 16.441 11.287 24.664 28.217 24.664 50.789 0 16.959-4.785 31.168-14.352 42.625-9.568 11.458-23.805 19.765-42.711 24.921v0.688c10.426 3.209 19.105 8.422 26.039 15.641 6.932 7.219 13.148 17.934 18.648 32.141l24.234 62.734h-83.7z m-7.047-168.265c0-8.25-2.521-14.781-7.562-19.594-5.043-4.812-12.949-7.219-23.719-7.219h-15.297v56.375h13.406c9.969 0 17.988-2.807 24.062-8.422 6.073-5.613 9.11-12.659 9.11-21.14z"/>
	</symbol>
	<symbol id="tools" viewBox="0 0 1024 1024">
		<path d="M707.2 350.976l-198.496 115.264-195.072-111.712c-37.088-21.12-68.736 34.528-31.648 55.616l198.72 113.792v256.736a32 32 0 0 0 64 0v-258.016c0-1.056-0.512-1.952-0.608-3.008l194.752-113.088c37.088-21.056 5.44-76.704-31.648-55.584z"/>
		<path d="M880.288 232.48L560.192 45.12a95.648 95.648 0 0 0-96.64 0L143.68 232.48A96.64 96.64 0 0 0 96 315.904v397.664c0 34.784 18.624 66.88 48.736 84l320 181.92a95.52 95.52 0 0 0 94.496 0l320-181.92A96.576 96.576 0 0 0 928 713.568V315.904a96.64 96.64 0 0 0-47.712-83.424zM864 713.568c0 11.584-6.208 22.304-16.256 28l-320 181.92a31.776 31.776 0 0 1-31.488 0l-320-181.92A32.192 32.192 0 0 1 160 713.568V315.904c0-11.456 6.048-22.016 15.904-27.808l319.872-187.36a31.84 31.84 0 0 1 32.192 0l320.128 187.392c9.856 5.728 15.904 16.32 15.904 27.776v397.664z"/>
	</symbol>
	<symbol id="weather" viewBox="0 0 1161 1024">
		<path d="M781.833075 1023.972803H440.345543a440.075272 440.075272 0 1 1 399.450324-624.247368 314.460894 314.460894 0 0 1-57.962792 624.247368zM440.345543 220.312747a363.584784 363.584784 0 0 0 0 727.169569h341.487532a238.480343 238.480343 0 0 0 87.964061-460.047789 441.94504 441.94504 0 0 1-13.853277 241.624952 38.304736 38.304736 0 1 1-72.241016-25.496829 363.839753 363.839753 0 0 0-343.3573-483.249903z"/>
		<path d="M840.050835 399.725435a313.610999 313.610999 0 0 1 155.27569 77.425371A276.385629 276.385629 0 0 0 551.001782 157.930505a441.94504 441.94504 0 0 1 289.049053 241.79493zM576.838568 107.616762a38.160254 38.160254 0 0 1-27.026639-11.218605l-30.171247-30.171248a38.245244 38.245244 0 1 1 54.053277-54.053278l30.171248 30.171248a38.245244 38.245244 0 0 1-27.026639 65.271883zM952.066905 121.045092a38.245244 38.245244 0 0 1-31.786047-59.492602l21.587315-32.550952a38.304736 38.304736 0 1 1 63.742073 42.494716l-21.587315 32.550952a38.245244 38.245244 0 0 1-31.956026 16.997886z" fill="#65C8D0"/>
		<path d="M1120.855914 430.066662h-2.97463l-45.894292-3.484567a38.35573 38.35573 0 1 1 5.86427-76.490488l45.894293 3.484567a38.270741 38.270741 0 0 1-2.889641 76.490488z" fill="#65C8D0"/>
	</symbol>
	<symbol id="store" viewBox="0 0 1024 1024">
		<path d="M719.2576 206.9504a58.88 58.88 0 0 0-35.2256 106.0352 173.2096 173.2096 0 0 1-344.064 0 59.0336 59.0336 0 1 0-66.9184 2.2528 240.0768 240.0768 0 0 0 477.9008 0 58.7264 58.7264 0 0 0-31.6928-108.288z"/>
		<path d="M848.7936 25.6H175.2064a84.8384 84.8384 0 0 0-84.8384 84.7872v803.2256A84.8384 84.8384 0 0 0 175.2064 998.4h673.5872a84.8384 84.8384 0 0 0 84.8384-84.7872V110.3872A84.8384 84.8384 0 0 0 848.7936 25.6z m18.8928 110.6944v751.4112a44.8512 44.8512 0 0 1-44.8 44.7488H201.1136a44.8512 44.8512 0 0 1-44.8-44.7488V136.2944a44.8512 44.8512 0 0 1 44.8-44.7488h621.7728a44.8512 44.8512 0 0 1 44.8 44.7488z"/>
	</symbol>
	<symbol id="ai" viewBox="0 0 1024 1024">
		<path d="M576 85.333333c0 18.944-8.234667 35.968-21.333333 47.701334V213.333333h213.333333a128 128 0 0 1 128 128v426.666667a128 128 0 0 1-128 128H256a128 128 0 0 1-128-128V341.333333a128 128 0 0 1 128-128h213.333333V133.034667A64 64 0 1 1 576 85.333333zM0 426.666667h85.333333v256H0v-256z m1024 0h-85.333333v256h85.333333v-256zM384 618.666667a64 64 0 1 0 0-128 64 64 0 0 0 0 128z m320-64a64 64 0 1 0-128 0 64 64 0 0 0 128 0z"/>
	</symbol>
	<symbol id="record" viewBox="0 0 1024 1024">
		<path d="M881.778 61.551c31.419 0 56.889 25.47 56.889 56.89V905.56c0 31.419-25.47 56.889-56.89 56.889h-705.22c-31.418 0-56.888-25.47-56.888-56.89V118.44c0-31.419 25.47-56.889 56.889-56.889h705.22z m-28.445 85.28H204.971v730.282h648.362V146.83z"/>
		<path d="M411.814 104.927V920.9h-85.333V104.927z"/>
		<path d="M742.521 230.829c29.175 0 53.22 21.961 56.506 50.254l0.383 6.635v207.27c0 31.419-25.47 56.889-56.889 56.889-29.175 0-53.22-21.962-56.506-50.255l-0.383-6.634v-207.27c0-31.42 25.47-56.89 56.889-56.89z" fill="#EF502F"/>
		<path d="M242.23 223.634c23.563 0 42.666 19.103 42.666 42.667 0 21.6-16.052 39.452-36.877 42.277l-5.79 0.39H73.891c-23.564 0-42.666-19.103-42.666-42.667 0-21.6 16.051-39.452 36.877-42.278l5.79-0.389h168.337zM242.23 469.333c23.563 0 42.666 19.103 42.666 42.667 0 21.6-16.052 39.452-36.877 42.277l-5.79 0.39H73.891c-23.564 0-42.666-19.103-42.666-42.667 0-21.6 16.051-39.452 36.877-42.277l5.79-0.39h168.337zM242.23 715.033c23.563 0 42.666 19.102 42.666 42.666 0 21.6-16.052 39.452-36.877 42.278l-5.79 0.389H73.891c-23.564 0-42.666-19.103-42.666-42.667 0-21.6 16.051-39.452 36.877-42.277l5.79-0.39h168.337z"/>
	</symbol>
	<symbol id="setting" viewBox="0 0 1024 1024">
		<path d="M617.376 929.968c-8 17.648-25.152 29.136-44.096 29.136L451.2 960a48.336 48.336 0 0 1-44.16-28.576L370.72 854.4a331.568 331.568 0 0 1-42.992-21.76l-77.776 18.944a47.872 47.872 0 0 1-50.048-17.472L123.84 736.848c-11.68-15.44-14.032-36-5.696-53.2l37.28-76.752a471.776 471.776 0 0 1-9.392-43.792l-63.424-50.368a51.088 51.088 0 0 1-17.376-50.56l26.8-121.328c4.256-19.168 18.72-33.952 37.152-37.632l81.568-18.192a421.488 421.488 0 0 1 26.832-33.856l-1.28-81.92c-0.512-19.2 10.192-36.8 27.552-46.048l109.296-54.048a48.688 48.688 0 0 1 52.64 5.84l65.008 53.28a339.488 339.488 0 0 1 45.824 0.416l61.984-51.92a48.688 48.688 0 0 1 52.56-6.336l109.856 53.664a50.72 50.72 0 0 1 27.952 45.408l-0.416 85.6c9.168 10.528 18.048 22.08 26.048 33.84l78.24 16.432c18.688 3.728 33.552 18.608 37.76 37.584l28.128 120.96c4.208 19.008-2.24 38.48-16.976 50.608l-65.6 53.376c-2.832 16.624-5.6 29.472-9.28 41.728l36.752 72.704c8.448 17.44 6.704 37.984-4.8 53.168l-74.24 98.496c-11.728 15.44-30.928 22.752-49.424 18.512l-81.488-18.16a329.28 329.28 0 0 1-42.976 21.328l-33.312 74.288zM312.32 745.296c4-1.152 8.08-1.728 12.144-1.728a51.52 51.52 0 0 1 28.48 8.4 286.48 286.48 0 0 0 63.488 31.808c12.64 4.4 23.312 14.192 29.6 26.816l33.648 71.28 63.424-0.8 30.528-68.528c6.144-13.44 16.864-23.408 30.128-27.84a284.784 284.784 0 0 0 63.472-31.296 51.2 51.2 0 0 1 39.248-7.296l74.992 17.024 38.88-51.728-34.032-67.232a52 52 0 0 1-2.832-41.68c7.44-21.888 12.32-43.68 14.56-65.616 1.6-13.808 8.368-26.496 18.96-35.488l60.784-49.04-14.848-63.456-72.16-15.248a50.944 50.944 0 0 1-33.584-23.936c-12.4-20.064-26.08-38.016-40.992-53.344a54.336 54.336 0 0 1-14.912-37.184l0.448-78.832-57.536-28-57.12 48.032c-11.264 8.992-25.216 13.28-39.104 11.6a272.48 272.48 0 0 0-69.28-0.48 49.92 49.92 0 0 1-38.224-11.2l-60.16-49.808-57.12 28.8 1.312 75.712a54.08 54.08 0 0 1-15.552 38.24c-15.888 15.904-29.92 33.6-41.76 52.704a53.104 53.104 0 0 1-32.4 23.44L159.68 386.432l-14.048 63.936 58.48 46.304a52.4 52.4 0 0 1 19.472 36.624c2.336 23.44 7.008 46.144 14.08 67.84 4.368 13.328 3.392 27.824-2.72 40.448l-33.712 70.08 39.68 50.944 71.408-17.328h-0.016z m199.408-40.272c-104.4 0-188.96-86.48-188.96-193.12 0-106.592 84.56-193.072 188.96-193.072s188.96 86.48 188.96 193.088c0 106.624-84.56 193.104-188.96 193.104z m0-308.752c-62.24 0-112.848 51.904-112.848 115.648 0 63.76 50.608 115.68 112.848 115.68s112.848-51.92 112.848-115.68c0-63.744-50.624-115.648-112.848-115.648z"/>
	</symbol>
	<symbol id="clean" viewBox="0 0 1026 1024">
		<path d="M906.446805 412.044131c-49.849989-22.913995-99.579979-45.09699-149.916968-66.791985a120.054974 120.054974 0 0 0-114.204975 7.069998 117.860975 117.860975 0 0 0-48.75299 55.577988q187.69996 83.368982 375.27992 166.858965a251.093946 251.093946 0 0 1 5.239999-14.625997 121.883974 121.883974 0 0 0-67.644986-148.088969z m112.985976-389.417916a63.257986 63.257986 0 0 0-40.464991-21.572995 29.373994 29.373994 0 0 0-35.102993 17.550996 140785.079753 140785.079753 0 0 0-146.259968 274.603941c-1.097 2.924999-2.924999 5.849999-4.021999 8.774998l2.314999 2.316c39.246992 16.941996 78.371983 34.492993 117.617975 52.044988a10.847998 10.847998 0 0 0 1.827999-4.631999c36.564992-100.065979 73.129984-200.863957 108.841977-300.929935a26.082994 26.082994 0 0 0-4.752999-28.155994zM217.926953 550.138102a98.603979 98.603979 0 1 0-97.506979-100.674979 100.431978 100.431978 0 0 0 97.506979 100.674979zM61.549987 155.601187a58.869987 58.869987 0 1 0 0 117.617974 59.479987 59.479987 0 0 0 58.625987-58.503987A58.625987 58.625987 0 0 0 61.549987 155.600187z m177.461962 118.836974a40.709991 40.709991 0 0 0 39.124991-39.246992 39.367992 39.367992 0 0 0-39.124991-39.733991 38.879992 38.879992 0 0 0-39.245992 39.246992 40.099991 40.099991 0 0 0 39.245992 39.733991z m644.519861 358.824923c-3.533999 8.896998-6.459999 17.672996-9.383998 26.448994-7.556998 20.475996-15.113997 42.049991-24.376995 63.134987a1195.555743 1195.555743 0 0 1-116.032975 221.949952 30.714993 30.714993 0 0 1-26.448994 15.235997 20.354996 20.354996 0 0 1-6.337999 0c-12.187997-2.316-22.913995-4.143999-34.614992-5.849999s-22.791995-3.534999-34.492993-5.850999c-9.384998-1.706-18.159996-4.143999-26.935994-5.849998-4.143999-1.22-7.678998-1.707-12.187997-2.926l-25.229995-5.849999 14.625997-21.085995c18.159996-26.326994 32.176993-48.02199 43.389991-66.182986a388.564917 388.564917 0 0 1-77.273984 45.09699 118.226975 118.226975 0 0 1-48.752989 12.188998 86.902981 86.902981 0 0 1-46.07199-13.529997 451.699903 451.699903 0 0 0-43.389991-22.181995c-7.069998-3.534999-14.017997-6.459999-20.476996-9.994998l-20.476995-10.481998 15.235996-17.062996a211.223955 211.223955 0 0 0 16.940997-19.866996 304.708935 304.708935 0 0 1-43.877991 13.528997 40.586991 40.586991 0 0 1-7.677998 0 36.564992 36.564992 0 0 1-21.695995-7.069999c-18.769996-14.137997-38.636992-28.763994-59.112988-45.70599-7.678998-5.849999-14.138997-12.187997-21.694995-19.257996-2.925999-2.924999-6.459999-5.849999-9.994998-9.384998l-25.716994-23.156995 38.026991-7.069998a9.749998 9.749998 0 0 1 3.535 0A636.475863 636.475863 0 0 0 467.2999 641.673082a384.176917 384.176917 0 0 0 114.204975-93.11998c8.775998-11.089998 16.332996-22.790995 24.376995-35.101992a129.074972 129.074972 0 0 1 7.678998-11.090998 2.194 2.194 0 0 1 0.73-2.193999l2.317-3.534c-18.160996-10.481998-35.711992-19.867996-52.653989-29.861993-12.187997 16.453996-21.694995 32.786993-34.005993 46.92499a365.649921 365.649921 0 0 1-156.863966 103.600977 602.95787 602.95787 0 0 1-206.104956 39.977992 39.002992 39.002992 0 0 0-37.539992 22.913995 40.586991 40.586991 0 0 0 7.069999 44.48799 811.622826 811.622826 0 0 0 348.342925 243.766948 918.514803 918.514803 0 0 0 233.03995 54.846988 47.89999 47.89999 0 0 0 48.753989-21.694995c5.362999-7.678998 11.213998-15.234997 16.454997-22.791995a1320.486716 1320.486716 0 0 0 148.087968-299.833936c4.753999-12.187997 8.775998-25.107995 12.919997-38.026992-18.769996-6.459999-37.539992-13.529997-56.187988-19.866995z"/>
	</symbol>
	<symbol id="state" viewBox="0 0 1024 1024">
		<path d="M139.884 420.157a33.142 33.142 0 0 1-10.635-1.756 34.642 34.642 0 0 1-21.432-43.576C164.71 199.629 324.495 81.92 505.421 81.92c179.968 0 339.481 116.895 396.938 290.877a34.657 34.657 0 0 1-21.217 43.69 33.613 33.613 0 0 1-42.793-21.663c-48.185-145.92-181.98-243.948-332.928-243.948-151.752 0-285.773 98.719-333.486 245.642a33.859 33.859 0 0 1-32.051 23.64zM505.42 936.96c-185.61 0-346.624-121.667-400.67-302.756a34.606 34.606 0 0 1 22.46-43.008 33.674 33.674 0 0 1 42.148 22.938c45.328 151.859 180.378 253.89 336.062 253.89 155.008 0 293.652-105.938 337.147-257.623a33.684 33.684 0 0 1 41.907-23.408 34.601 34.601 0 0 1 22.922 42.767c-51.845 180.874-217.17 307.2-401.976 307.2z m-44.826-250.568a33.556 33.556 0 0 1-31.744-22.738l-67.584-190.52-48.046 57.969a33.48 33.48 0 0 1-25.784 12.21H59.392a34.483 34.483 0 0 1 0-68.955h212.357l75.612-91.223a33.413 33.413 0 0 1 31.744-11.669 33.976 33.976 0 0 1 25.795 22.2l64.799 182.677 60.6-91.924a33.485 33.485 0 0 1 31.744-15.023 33.905 33.905 0 0 1 27.75 21.766l16.19 42.465 34.17-51.118a33.587 33.587 0 0 1 27.9-15.043h286.315a34.483 34.483 0 0 1 0 68.956H685.875l-60.242 90.112a33.475 33.475 0 0 1-59.392-6.927l-16.005-41.984-61.63 93.537a33.577 33.577 0 0 1-28.01 15.232z"/>
	</symbol>
	<symbol id="system" viewBox="0 0 1024 1024">
		<path d="M783.36 913.066667H240.64c-18.773333 0-34.133333-15.36-34.133333-34.133334s15.36-34.133333 34.133333-34.133333h542.72c18.773333 0 34.133333 15.36 34.133333 34.133333s-15.36 34.133333-34.133333 34.133334zM477.866667 575.146667v-102.4h-27.306667c3.413333 44.373333 15.36 80.213333 27.306667 102.4z"/>
		<path d="M896 119.466667h-768C76.8 119.466667 34.133333 160.426667 34.133333 213.333333V665.6c0 51.2 42.666667 93.866667 93.866667 93.866667h768c51.2 0 93.866667-42.666667 93.866667-93.866667V213.333333C989.866667 160.426667 947.2 119.466667 896 119.466667zM512 677.546667c-131.413333 0-238.933333-107.52-238.933333-238.933334s107.52-238.933333 238.933333-238.933333 238.933333 107.52 238.933333 238.933333-107.52 238.933333-238.933333 238.933334z"/>
		<path d="M477.866667 404.48v-102.4c-11.946667 23.893333-23.893333 58.026667-27.306667 102.4H477.866667zM344.746667 404.48h37.546666c1.706667-35.84 8.533333-66.56 18.773334-95.573333-29.013333 23.893333-47.786667 58.026667-56.32 95.573333zM546.133333 575.146667c11.946667-23.893333 23.893333-58.026667 27.306667-102.4H546.133333v102.4zM546.133333 404.48h27.306667c-3.413333-44.373333-15.36-80.213333-27.306667-102.4v102.4zM622.933333 308.906667c10.24 27.306667 15.36 59.733333 18.773334 95.573333h37.546666c-8.533333-37.546667-27.306667-71.68-56.32-95.573333zM344.746667 472.746667c8.533333 37.546667 27.306667 71.68 56.32 95.573333-10.24-27.306667-15.36-59.733333-18.773334-95.573333h-37.546666zM622.933333 568.32c29.013333-23.893333 47.786667-58.026667 56.32-95.573333h-37.546666c-3.413333 35.84-8.533333 66.56-18.773334 95.573333z"/>
	</symbol>
	<symbol id="green" viewBox="0 0 1024 1024">
		<path d="M512 512m-512 0a512 512 0 1 0 1024 0 512 512 0 1 0-1024 0Z" fill="#66B610"/>
	</symbol>
	<symbol id="red" viewBox="0 0 1024 1024">
		<path d="M512 512m-512 0a512 512 0 1 0 1024 0 512 512 0 1 0-1024 0Z" fill="#d81e06"/>
	</symbol>
	<symbol id="app_reload" viewBox="0 0 1024 1024">
		<path d="M495 671.88l64 95.98h-28.8c12.587 61.717 60.227 110.305 121.694 124.116 61.468 13.81 125.32-9.73 163.106-60.13h74.432c-42.29 89.327-138.142 140.38-235.883 125.636-97.741-14.744-174.262-91.798-188.309-189.622H431l64-95.98zM720 87c35.346 0 64 28.648 64 63.987v291.939h-68v-287.94H148V866.84l247-0.001v67.986H144c-35.346 0-64-28.647-64-63.986V150.987C80 115.647 108.654 87 144 87h576z m0.451 427.251c97.741 14.744 174.262 91.798 188.309 189.622H943l-64 95.98-64-95.98h28.8c-12.587-61.717-60.227-110.305-121.694-124.116-61.468-13.81-125.32 9.73-163.106 60.13h-74.432c42.29-89.327 138.142-140.38 235.883-125.636zM439.08 409.411c17.67 0 31.993 14.324 31.993 31.993 0 17.67-14.324 31.994-31.993 31.994H263.067c-17.67 0-31.994-14.324-31.994-31.994s14.324-31.993 31.994-31.993H439.08z m161-144.97c17.67 0 31.993 14.324 31.993 31.993 0 17.67-14.324 31.994-31.993 31.994H264.067c-17.67 0-31.994-14.324-31.994-31.994s14.324-31.993 31.994-31.993H600.08z"/>
	</symbol>
	<symbol id="favorite" viewBox="0 0 1040 1024">
		<path d="M1023.63161 592.274278l-196.218964-27.063379L739.66107 396.46259l-87.753623 168.749332-196.21794 27.063379 141.983735 131.352607-33.518395 185.478342 175.506223-87.572498 175.503153 87.572498-33.518395-185.478342L1023.63161 592.274278zM503.635495 798.338471 116.623138 798.338471 62.046125 209.423707l186.619328 0 49.486064 88.202854c1.538029 4.417613 3.984754 8.350179 7.615445 11.45796 8.091282 9.17701 21.901823 13.035898 34.45165 8.16496 0.434905-0.188288 0.750083-0.559748 1.221828-0.785899l543.836079 0-23.518646 214.156498 59.509349 0 26.204825-238.388389c0.077771-0.451278-0.159636-0.861624-0.237407-1.312902 0-0.410346 0.316202-0.785899 0.316202-1.196245 0-1.350764-0.591471-2.471284-0.828878-3.709485-0.356111-1.985214-0.5137-3.933589-1.303692-5.76633-0.471744-1.272993-1.300622-2.325975-2.010797-3.483334-1.263783-1.910513-2.407839-3.708462-4.024663-5.320169-0.828878-0.821715-1.856277-1.385557-2.762927-2.097778-2.012843-1.533936-3.986801-2.920516-6.393617-3.895727-1.026376-0.448208-2.249227-0.597611-3.39533-0.935302-1.854231-0.560772-3.707438-1.462305-5.877871-1.647523-0.710175-0.075725-1.381463 0.185218-2.092661 0.185218-0.276293 0-0.592494-0.145309-0.828878-0.145309l-88.87005 0 0-80.299861c0-14.795984-13.257955-26.780947-29.597085-26.780947L444.321598 155.825998c-16.338107 0-29.598108 11.985986-29.598108 26.780947 0 14.793938 13.260002 26.777877 29.598108 26.777877l325.646732 0 0 53.521984L344.914564 262.906805l-50.944276-90.90029c-0.396019-0.750083-1.066285-1.236154-1.541099-1.948375-1.38044-2.320858-2.920516-4.644787-5.013177-6.51846-1.38044-1.198292-3.077082-1.908466-4.694929-2.845815-1.539053-0.935302-2.99931-2.058892-4.773723-2.77009-2.725064-1.011027-5.64558-1.348718-8.56405-1.573845-0.908696-0.073678-1.696642-0.487094-2.604314-0.487094L30.003338 155.862837c-0.396019 0-0.74906 0.187265-1.144056 0.227174-1.223874 0.035816-2.407839-0.339738-3.631714-0.151449-1.854231 0.26299-3.316535 1.159406-5.01113 1.722224-0.988514 0.264013-1.933025 0.562818-2.762927 0.938372-2.566452 1.046842-4.774747 2.471284-6.866385 4.119831-0.788969 0.636496-1.540076 1.235131-2.330068 1.947352-1.696642 1.759063-2.99931 3.594875-4.221138 5.653767-0.632403 1.088798-1.224898 2.13564-1.696642 3.333932-0.632403 1.949398-1.066285 3.894703-1.302669 5.992481-0.156566 1.046842-0.711198 1.910513-0.711198 2.960425 0 0.710175 0.396019 1.308809 0.475837 1.984191 0.078795 0.748037-0.237407 1.348718-0.079818 2.058892l59.037605 637.528971c0 0.26299-0.157589 0.563842-0.157589 0.935302 0 0.825808 0.393973 1.574868 0.471744 2.361791l0.317225 2.808976c0.077771 0.711198 0.630357 1.236154 0.788969 1.948375 0.63138 1.834788 1.303692 3.593851 2.170432 5.317099 1.223874 2.134617 2.685155 4.047176 4.379751 5.880941 0.356111 0.25992 0.671289 0.636496 1.066285 0.973164 6.471388 5.953595 15.626909 9.476839 25.492604 8.054443 0.63138-0.113587 1.064238-0.450255 1.617847-0.564865l407.730215 0c16.33606 0 29.596062-11.983939 29.596062-26.7789C533.231557 810.28557 519.971555 798.338471 503.635495 798.338471z"/>
	</symbol>
	<symbol id="list_down" viewBox="0 0 1024 1024">
		<path d="M967.68 865.28H56.32c-30.72 0-56.32 25.6-56.32 51.2s25.6 51.2 56.32 51.2h911.36c30.72 0 56.32-20.48 56.32-51.2s-25.6-51.2-56.32-51.2z m-921.6-307.2h419.84c25.6 0 46.08-25.6 46.08-51.2s-20.48-51.2-46.08-51.2H46.08c-25.6 0-46.08 20.48-46.08 51.2s20.48 51.2 46.08 51.2z m10.24-409.6h911.36c30.72 0 56.32-25.6 56.32-51.2s-25.6-51.2-56.32-51.2H56.32C25.6 46.08 0 66.56 0 97.28s25.6 51.2 56.32 51.2zM814.08 624.64c10.24 15.36 40.96 15.36 51.2 0l76.8-112.64 76.8-112.64c10.24-20.48 0-40.96-25.6-40.96h-317.44c-20.48 0-35.84 20.48-25.6 35.84l76.8 112.64 87.04 117.76z"/>
	</symbol>
	<symbol id="list_up" viewBox="0 0 1024 1024">
		<path d="M967.68 865.28H56.32c-30.72 0-56.32 25.6-56.32 51.2s25.6 51.2 56.32 51.2h911.36c30.72 0 56.32-20.48 56.32-51.2s-25.6-51.2-56.32-51.2z m-921.6-307.2h419.84c25.6 0 46.08-25.6 46.08-51.2s-20.48-51.2-46.08-51.2H46.08c-25.6 0-46.08 20.48-46.08 51.2s20.48 51.2 46.08 51.2z m10.24-409.6h911.36c30.72 0 56.32-25.6 56.32-51.2s-25.6-51.2-56.32-51.2H56.32C25.6 46.08 0 66.56 0 97.28s25.6 51.2 56.32 51.2zM814.08 368.64c10.24-15.36 40.96-15.36 51.2 0l76.8 112.64 76.8 112.64c10.24 15.36-5.12 35.84-25.6 35.84h-317.44c-20.48 0-35.84-20.48-25.6-35.84l76.8-112.64 87.04-112.64z"/>
	</symbol>
	<symbol id="website" viewBox="0 0 1024 1024">
		<path d="M114.8875 433C172.7125 235.375 299.4875 94.425 531.3 74.325c15.9625-1.4 38.3125-0.1375 56.5375-3.5875 15.7-3.1 34.8625-14.35 52.95-21.85 73.4375-30 235.7375-82.85 317.6875-18.0625 71.1 56.3375 58 193.3 14.1 282.6375 35 70.575 61 168.8875 45.9 278.975-205.9375 8.45-445.9375 1.125-645.9875 3.6625 6.7125 106.25 73.6625 187.7125 172.9875 199.2125 97.05 11.25 164.1625-43.4375 208.2625-105h247.05c-64.1875 183.85-227.3625 326.4625-480 307.975-57.5-4.2625-102.2375-20.95-151.825-39.9125C286.1375 1003.5125 103 1070.5625 30.125 976.3875c-55.3375-71.4375-19.7875-201.4125 10.575-286.1625C102.1625 518.6 219.1625 348.5125 333.6375 251.8625c0.6625-3 3.525-3.6625 3.525-7.25C246.7375 290.65 185.75 366.9375 114.8875 433z m868.275-268.075c-3.4-123.325-162.9-111.25-247.1125-61.6 94.05 37.5 162.7 101.1125 218.8375 177.5 12.2375-38.75 29.5375-70.85 28.275-115.875zM372.4875 465.5875h391.825c-11.375-251.975-379.5125-231.6125-391.825 0zM83.0375 907.6375c19.65 111.55 176.25 79.0875 247.1125 29-92.95-51.9875-150.8625-139.85-197.6875-239.175-21.725 53.75-62.3875 136.5-49.425 210.2z"/>
	</symbol>
	<symbol id="collect_ok" viewBox="0 0 1024 1024">
		<path d="M707.584 93.184c-77.312 0-148.992 38.912-196.608 102.912-47.104-64-119.296-102.912-196.608-102.912-139.264 0-252.416 123.904-252.416 275.968 0 90.624 40.448 154.624 73.216 205.824C229.888 723.968 468.48 908.8 478.72 916.48c9.728 7.68 20.992 11.264 32.256 11.264s22.528-3.584 32.256-11.264c10.24-7.68 248.32-193.024 343.552-341.504 32.768-51.2 73.216-115.2 73.216-205.824 0-152.064-113.152-275.968-252.416-275.968z"/>
	</symbol>
	<symbol id="collect_no" viewBox="0 0 1024 1024">
		<path d="M709.095 96.596c-77.435 0-149.224 38.975-196.92 103.072C465.003 135.566 392.697 96.596 315.26 96.596c-139.478 0-252.81 124.097-252.81 276.399 0 90.764 40.509 154.868 73.327 206.145 94.87 149.23 333.838 334.345 344.088 342.04a51.687 51.687 0 0 0 32.306 11.282c11.281 0 22.563-3.59 32.305-11.282 10.26-7.695 248.71-193.329 344.092-342.04 32.824-51.282 73.333-115.38 73.333-206.145 0.004-152.302-113.324-276.399-252.805-276.399z m114.35 481.005c-87.683 123.07-273.316 263.578-282.551 270.243-8.716 6.67-18.976 10.26-28.718 10.26-10.256 0-19.999-3.078-28.715-10.26-9.234-6.66-191.276-148.707-282.555-275.368-29.227-46.152-75.893-103.586-75.893-184.604 0-136.409 75.894-232.3 200.507-232.3 69.228 0 144.612 66.15 186.656 123.584 42.565-57.433 117.431-123.583 186.66-123.583 125.122 0 206.15 95.89 206.15 232.3 0 81.012-51.8 144.089-81.541 189.729z"/>
	</symbol>
	<symbol id="icon" viewBox="0 0 1024 1024">
		<path d="M764.9 503.5H520.5V259.2c0-139.8 111.2-254.5 247.8-255.7 67.7-0.6 131.2 25.4 179 73.2 47.8 47.8 73.8 111.3 73.3 178.9-1.2 136.6-115.9 247.9-255.7 247.9z m-188-56.4h188c109 0 198.4-86.1 199.3-192 0.4-52.4-19.7-101.6-56.7-138.6-36.6-36.6-85.2-56.7-136.9-56.7h-1.8c-105.8 1-191.9 90.4-191.9 199.4v187.9z m-323.5 573.5c-66.8 0-129.5-26-176.8-73.3-47.8-47.8-73.8-111.4-73.2-179 1.2-136.6 115.9-247.8 255.7-247.8h244.4v244.3c0 139.9-111.2 254.6-247.9 255.7l-0.2-28.2 0.2 28.2c-0.8 0.1-1.5 0.1-2.2 0.1z m5.7-443.7c-109 0-198.4 86.1-199.3 191.9-0.5 52.4 19.7 101.6 56.7 138.6 36.6 36.6 85.2 56.7 136.9 56.7h1.6c105.9-0.9 192-90.3 192-199.4V576.9H259.1z m244.3-73.4H259.7c-65.3 0-127.7-24.2-175.7-68.2-48.8-44.7-77.3-105-80.3-169.8C0.5 196.3 24.9 130.8 72.6 80.9c23.1-24.2 50.3-43.2 80.8-56.6C185 10.4 218.7 3.4 253.5 3.4c66.8 0 129.6 26 176.8 73.2 47.2 47.2 73.2 110 73.2 176.8l-0.1 250.1zM253.5 59.8c-53.4 0-103.2 21.3-140.1 60-36.9 38.7-55.8 89.4-53.3 143 2.3 49.8 24.4 96.3 62.1 130.9 37.6 34.5 86.5 53.4 137.6 53.4h187.4V253.5c0-51.7-20.1-100.4-56.7-136.9-36.7-36.6-85.3-56.8-137-56.8z m517.1 960.8h-2.3c-136.6-1.2-247.8-115.9-247.8-255.7V520.5h244.3c139.9 0 254.6 111.2 255.7 247.9 0.5 67.6-25.5 131.2-73.3 178.9-47.2 47.3-109.9 73.3-176.6 73.3zM576.9 576.9v187.9c0 109 86.1 198.4 191.9 199.4h1.8c51.7 0 100.2-20.1 136.9-56.7 37-37 57.2-86.2 56.8-138.6-0.9-105.9-90.3-192-199.3-192H576.9z"/>
	</symbol>
	<symbol id="more" viewBox="0 0 5120 1024">
		<path d="M512 1024a512 512 0 1 1 0-1024 512 512 0 0 1 0 1024z m2048 0a512 512 0 1 1 0-1024 512 512 0 0 1 0 1024z m2048 0a512 512 0 1 1 0-1024 512 512 0 0 1 0 1024z"/>
	</symbol>
	<symbol id="trash" viewBox="0 0 1024 1024">
		<path d="M984.624527 224.548518H39.39961a39.375229 39.375229 0 1 1 0-78.750457h255.999939V78.750457A78.945505 78.945505 0 0 1 374.174387 0h275.699744a78.945505 78.945505 0 0 1 78.774838 78.750457v67.047604h255.999939a39.375229 39.375229 0 1 1-0.024381 78.750457zM649.84975 78.750457H374.150006v59.001891h275.699744V78.750457z m35.352373 753.12744a37.766086 37.766086 0 0 1-55.125321 0L511.999878 713.630306l-118.076924 118.247591a37.766086 37.766086 0 0 1-55.12532 0 38.083039 38.083039 0 0 1 0-55.100939L456.898939 658.285558l-114.151592-114.34664a39.009515 39.009515 0 1 1 55.100939-55.100939L511.999878 603.184618l114.151592-114.346639a39.009515 39.009515 0 1 1 55.100939 55.100939L567.100817 658.285558l118.101306 118.4914a38.083039 38.083039 0 0 1-0.097524 55.100939zM110.275021 291.352312a37.302848 37.302848 0 0 1 39.39961 39.497133v582.948433a31.085707 31.085707 0 0 0 31.500183 31.451421h657.724796a31.134469 31.134469 0 0 0 31.500183-31.451421V330.849445a37.278467 37.278467 0 0 1 39.375228-39.497133 32.646087 32.646087 0 0 1 35.449897 39.497133v582.948433A110.055593 110.055593 0 0 1 834.949896 1023.999756H181.174814a110.079974 110.079974 0 0 1-110.275021-110.201878V330.849445a37.278467 37.278467 0 0 1 39.375228-39.497133z"/>
	</symbol>
	<symbol id="copy_no" viewBox="0 0 1024 1024">
		<path d="M512 0C230.4 0 0 230.4 0 512s230.4 512 512 512 512-230.4 512-512S793.6 0 512 0z m0 51.2c117.76 0 225.28 46.08 307.2 117.76L168.96 819.2C97.28 737.28 51.2 629.76 51.2 512c0-253.44 207.36-460.8 460.8-460.8z m0 921.6c-117.76 0-225.28-46.08-307.2-117.76L855.04 204.8c74.24 81.92 117.76 189.44 117.76 307.2 0 253.44-207.36 460.8-460.8 460.8z" fill="#FF090B"/>
		<path d="M624.5 786.3c92.9 0 168.2-75.3 168.2-168.2V309c0-92.4-75.3-168.2-168.2-168.2H303.6c-92.4 0-168.2 75.3-168.2 168.2v309.1c0 92.4 75.3 168.2 168.2 168.2h320.9zM178.2 618.1V309c0-69.4 56.1-125.5 125.5-125.5h320.9c69.4 0 125.5 56.1 125.5 125.5v309.1c0 69.4-56.1 125.5-125.5 125.5h-321c-69.4 0-125.4-56.1-125.4-125.5zM849.8 295.1v361.5c0 102.7-83.6 186.3-186.3 186.3H279.1v42.7h384.4c126.3 0 229.1-102.8 229.1-229.1V295.1h-42.8zM307.9 361.8h312.3c11.8 0 21.4-9.6 21.4-21.4 0-11.8-9.6-21.4-21.4-21.4H307.9c-11.8 0-21.4 9.6-21.4 21.4 0 11.9 9.6 21.4 21.4 21.4zM307.9 484.6h312.3c11.8 0 21.4-9.6 21.4-21.4 0-11.8-9.6-21.4-21.4-21.4H307.9c-11.8 0-21.4 9.6-21.4 21.4 0 11.9 9.6 21.4 21.4 21.4zM620.2 607.4c11.8 0 21.4-9.6 21.4-21.4 0-11.8-9.6-21.4-21.4-21.4H307.9c-11.8 0-21.4 9.6-21.4 21.4 0 11.8 9.6 21.4 21.4 21.4h312.3z"/>
	</symbol>
	<symbol id="copy_ok" viewBox="0 0 1024 1024">
		<path d="M725.179728 157.115733H147.461683C68.090305 157.115733 3.487283 221.809778 3.487283 301.283556v578.548622C3.487283 959.305956 68.090305 1024 147.461683 1024H725.179728c79.371378 0 143.9744-64.694044 143.9744-144.167822V301.283556c0-79.485156-64.603022-144.1792-143.9744-144.1792z m79.371377 722.716445a78.836622 78.836622 0 0 1-79.371377 79.485155H147.461683a78.836622 78.836622 0 0 1-79.371378-79.485155V301.283556a78.836622 78.836622 0 0 1 79.371378-79.485156H725.179728a78.836622 78.836622 0 0 1 79.371377 79.485156z m0 0M878.438394 0H250.817417c-44.293689 0-86.744178 22.175289-114.437689 57.298489-11.070578 14.791111-7.384178 35.1232 7.384177 46.216533s35.066311 7.395556 46.136889-7.395555c14.791111-20.332089 36.909511-31.414044 62.759823-31.414045h627.564088c42.461867 0 77.5168 35.111822 77.5168 77.630578v628.440178c0 20.332089-9.227378 40.664178-23.995733 55.455289a34.224356 34.224356 0 0 0-1.831822 46.205155c3.6864 5.552356 12.925156 9.238756 22.152533 9.238756a34.019556 34.019556 0 0 0 22.152534-9.238756c27.682133-25.873067 44.293689-64.694044 44.293688-103.537778v-626.574222A142.279111 142.279111 0 0 0 878.438394 0z m0 0M679.042839 558.216533H468.622217V345.645511a33.223111 33.223111 0 1 0-66.446223 0V556.373333H191.755372a33.268622 33.268622 0 0 0 0 66.537245h210.420622v210.716444a33.223111 33.223111 0 1 0 66.446223 0V622.8992h210.420622a33.109333 33.109333 0 0 0 33.223111-33.268622c0-18.488889-14.791111-31.425422-33.223111-31.425422z m0 0"/>
	</symbol>
	<symbol id="vector" viewBox="0 0 1024 1024">
		<path d="M796.7367 185.615396v117.875194H709.435157v-71.362672L516.357472 133.669167v754.705532l192.570539-98.458752v-71.362671h87.301543v117.440498l-367.68077 187.861327V0h4.999009l363.188907 185.615396z m-596.983162 19.561341a73.536154 73.536154 0 0 1-27.023631-26.299137 73.753502 73.753502 0 0 1-9.345974-36.804302 72.449413 72.449413 0 0 1 9.708222-38.108391 71.290222 71.290222 0 0 1 26.661383-25.067497 69.913683 69.913683 0 0 1 36.369606-9.85312 71.000425 71.000425 0 0 1 36.369605 9.92557c11.954153 7.027593 20.93788 15.866421 26.951181 26.371586 6.085751 10.505165 9.201075 22.749116 9.345975 36.659403v0.507146c0 13.765388-2.970426 25.86444-8.983728 36.224706a72.014716 72.014716 0 0 1-27.385878 26.444036 70.493279 70.493279 0 0 1-32.674685 9.85312v0.072449h-3.62247a69.986133 69.986133 0 0 1-36.369606-9.925569zM0.662552 302.983444c0-14.707231 3.260224-27.530777 9.780671-38.25329a70.855526 70.855526 0 0 1 26.588934-24.777699 69.986133 69.986133 0 0 1 36.224707-9.998019h0.144899c10.142918 0.289798 19.416443 2.390831 27.965473 6.23065 8.476581 3.839819 16.156219 9.418424 23.038913 16.808263q10.360266 11.012311 15.214377 24.053205a71.58002 71.58002 0 0 1 4.491863 28.255271 72.376963 72.376963 0 0 1-5.795953 26.806283c-3.550021 8.259233-8.69393 15.793972-15.576623 22.604217a72.594312 72.594312 0 0 1-22.604217 15.576624 72.594312 72.594312 0 0 1-26.733833 5.795953h-0.144899a73.029008 73.029008 0 0 1-27.748125-5.651055 73.029008 73.029008 0 0 1-23.47361-16.083769 73.101457 73.101457 0 0 1-15.938871-23.546059A73.029008 73.029008 0 0 1 0.662552 302.983444z m930.612707 209.306354v-61.7269h-29.197113q-12.3164 0-23.618509 3.550021a82.737229 82.737229 0 0 0-31.153247 18.329702c-10.142918 9.201075-24.560351 27.603226-43.17985 55.206452-9.201075 13.62049-16.373567 23.908306-21.517476 31.153248l-4.781661 6.447997c-29.197113 40.136975-52.888071 67.522853-71.000425 82.012736-10.142918 7.969435-21.01033 14.707231-32.312438 20.068487-22.459318 10.577614-47.454365 15.866421-74.840243 15.866421h-55.786048V601.475025h55.786048a92.735248 92.735248 0 0 0 62.596293-21.807273c11.447007-9.490873 28.472619-29.994057 51.221734-61.292204l6.520448-8.911277c3.912268-5.433706 9.708221-13.62049 17.387859-24.632801 26.806283-38.398189 48.686005-64.842224 65.711617-79.332107 14.85213-12.678647 30.86345-22.024621 48.033961-28.182821 16.01132-5.651054 32.964483-8.476581 51.004386-8.476582h29.124664v-69.478986l92.083204 105.268996-85.707656 100.197538-6.375548 7.46229z m-690.442904-80.346399a72.449413 72.449413 0 0 1 9.853121-38.398189 70.783076 70.783076 0 0 1 26.444035-24.70525 70.710627 70.710627 0 0 1 36.297156-9.925569c10.142918 0 19.561341 1.956134 28.255271 5.578605 8.476581 3.622471 16.301118 9.056177 23.328711 16.156219q10.650064 10.794963 15.938871 23.763407a72.232065 72.232065 0 0 1 5.071459 27.385878v0.724494c-0.072449 13.765388-3.115325 25.86444-9.128626 36.224707a76.43413 76.43413 0 0 1-63.393237 36.224706v0.072449h-0.072449a73.029008 73.029008 0 0 1-27.820574-5.578604 72.956559 72.956559 0 0 1-23.401161-16.08377 73.029008 73.029008 0 0 1-15.938871-23.47361 73.173907 73.173907 0 0 1-5.506155-27.965473z m490.120278 43.976793l2.39083 2.245932-2.101033 2.608179c-6.592897 8.259233-15.793972 20.430734-27.530776 36.514504h0.144898l-18.981746 25.791991-2.970426-3.042875q-33.833876-34.848168-71.50757-39.774728a95.995472 95.995472 0 0 0-10.215367-0.724494c-25.357294-0.507146-42.600255-0.507146-51.946229 0l-3.76737 0.144899v-81.867837h55.786048q16.663365 0 32.602236 3.187775c34.993066 6.955144 67.667752 25.284845 98.096505 54.916654z m71.290222 72.666761l2.535729-3.69492 3.042876 3.260224q37.383897 40.354323 79.549455 46.295175c4.92656 0.724494 9.780671 1.014292 14.77968 1.014292h8.69393v0.072449h20.358285v-61.219754l92.155653 105.051649-92.155653 107.732276v-69.986132h-29.052215c-15.214377 0-29.994057-1.738786-44.33904-5.288807-35.934909-8.838828-69.04429-28.762417-99.473044-59.770766l-2.318381-2.318381 2.101033-2.46328c8.404132-10.360266 20.068487-25.791991 34.920617-46.222726l1.448988-1.956134v-0.072449h0.072449c2.390831-3.115325 4.999009-6.592897 7.679638-10.432716z m-645.379369 169.531626a89.257677 89.257677 0 0 1-34.630819-33.32673q-10.650064-18.981746-10.650064-43.976793c0-16.518466 3.477572-31.080798 10.505165-43.686996 7.607188-13.475591 19.126645-24.6328 34.775718-33.616528 14.997028-8.041885 29.849158-12.099052 44.628838-12.099051a87.301542 87.301542 0 0 1 44.773737 12.099051c15.504174 8.911278 27.023631 19.996038 34.55837 33.32673q10.722513 18.981746 10.722513 43.976794c0 16.808264-3.622471 31.515495-10.867411 44.194142a88.967879 88.967879 0 0 1-34.485921 33.181831 91.358709 91.358709 0 0 1-44.701288 12.026602 87.881138 87.881138 0 0 1-44.628838-12.026602z m-61.292203 205.249187a73.608603 73.608603 0 0 1-26.951182-26.371587 73.681053 73.681053 0 0 1-9.273524-36.659402c0-14.85213 3.260224-27.675676 9.85312-38.543088a70.855526 70.855526 0 0 1 26.444035-24.6328 70.34838 70.34838 0 0 1 72.666761 0c11.954153 7.100042 21.01033 15.938871 27.023631 26.371586 6.085751 10.505165 9.128626 22.749116 9.273525 36.731852v0.434697a71.724919 71.724919 0 0 1-8.911278 36.297155 71.942267 71.942267 0 0 1-27.458327 26.371587 70.493279 70.493279 0 0 1-32.602236 9.85312v0.144899h-3.62247q-10.650064 0-20.430735-2.897977a70.27593 70.27593 0 0 1-15.938871-7.100042z"/>
	</symbol>
	<symbol id="upload" viewBox="0 0 1024 1024">
		<path d="M831.961754 522.233062 192.037223 522.233062c-5.65172 0-10.233062-4.582365-10.233062-10.233062 0-5.65172 4.581342-10.233062 10.233062-10.233062l639.924531 0c5.65172 0 10.233062 4.581342 10.233062 10.233062C842.194816 517.65172 837.613474 522.233062 831.961754 522.233062z"/>
		<path d="M522.23255 192.037734l0 639.924531c0 5.65172-4.582365 10.233062-10.233062 10.233062-5.65172 0-10.233062-4.581342-10.233062-10.233062l0-639.924531c0-5.65172 4.581342-10.233062 10.233062-10.233062C517.650185 181.804672 522.23255 186.386014 522.23255 192.037734z"/>
	</symbol>
	<symbol id="switch_on" viewBox="0 0 1027 1024">
		<path d="M238.933333 614.4c-37.546667 0-68.266667-27.306667-68.266666-61.44v-85.333333c0-34.133333 30.72-61.44 68.266666-61.44s68.266667 27.306667 68.266667 61.44v85.333333c0 34.133333-30.72 61.44-68.266667 61.44z m0-170.666667c-17.066667 0-34.133333 10.24-34.133333 27.306667v85.333333c0 13.653333 17.066667 23.893333 34.133333 23.893334s34.133333-10.24 34.133334-27.306667v-85.333333c0-13.653333-17.066667-23.893333-34.133334-23.893334zM460.8 614.4c-6.826667 0-10.24-3.413333-13.653333-6.826667L375.466667 488.106667v109.226666c0 10.24-6.826667 17.066667-17.066667 17.066667s-17.066667-6.826667-17.066667-17.066667v-170.666666c0-6.826667 6.826667-13.653333 13.653334-17.066667 6.826667-3.413333 13.653333 0 20.48 6.826667l71.68 119.466666v-109.226666c0-10.24 6.826667-17.066667 17.066666-17.066667s17.066667 6.826667 17.066667 17.066667v170.666666c0 6.826667-6.826667 13.653333-13.653333 17.066667h-6.826667zM750.933333 682.666667c-95.573333 0-170.666667-75.093333-170.666666-170.666667s75.093333-170.666667 170.666666-170.666667 170.666667 75.093333 170.666667 170.666667-75.093333 170.666667-170.666667 170.666667z m0-307.2c-75.093333 0-136.533333 61.44-136.533333 136.533333s61.44 136.533333 136.533333 136.533333 136.533333-61.44 136.533334-136.533333-61.44-136.533333-136.533334-136.533333z"/>
		<path d="M747.52 785.066667H276.48C122.88 785.066667 0 662.186667 0 512s122.88-273.066667 276.48-273.066667H750.933333c150.186667 0 276.48 122.88 276.48 273.066667s-126.293333 273.066667-279.893333 273.066667zM276.48 273.066667C143.36 273.066667 34.133333 378.88 34.133333 512s109.226667 238.933333 242.346667 238.933333H750.933333c133.12 0 242.346667-105.813333 242.346667-238.933333S884.053333 273.066667 750.933333 273.066667H276.48z"/>
	</symbol>
	<symbol id="switch_off" viewBox="0 0 1027 1024">
		<path d="M273.066667 682.666667c-95.573333 0-170.666667-75.093333-170.666667-170.666667s75.093333-170.666667 170.666667-170.666667 170.666667 75.093333 170.666666 170.666667-75.093333 170.666667-170.666666 170.666667z m0-307.2c-75.093333 0-136.533333 61.44-136.533334 136.533333s61.44 136.533333 136.533334 136.533333 136.533333-61.44 136.533333-136.533333-61.44-136.533333-136.533333-136.533333z"/>
		<path d="M747.52 785.066667H276.48C122.88 785.066667 0 662.186667 0 512s122.88-273.066667 276.48-273.066667H750.933333c150.186667 0 276.48 122.88 276.48 273.066667s-126.293333 273.066667-279.893333 273.066667zM276.48 273.066667C143.36 273.066667 34.133333 378.88 34.133333 512s109.226667 238.933333 242.346667 238.933333H750.933333c133.12 0 242.346667-105.813333 242.346667-238.933333S884.053333 273.066667 750.933333 273.066667H276.48z"/>
		<path d="M580.266667 614.4c-37.546667 0-68.266667-27.306667-68.266667-61.44v-85.333333c0-34.133333 30.72-61.44 68.266667-61.44s68.266667 27.306667 68.266666 61.44v85.333333c0 34.133333-30.72 61.44-68.266666 61.44z m0-170.666667c-17.066667 0-34.133333 10.24-34.133334 27.306667v85.333333c0 13.653333 17.066667 27.306667 34.133334 27.306667s34.133333-10.24 34.133333-27.306667v-85.333333c0-17.066667-17.066667-27.306667-34.133333-27.306667zM836.266667 614.4c-10.24 0-17.066667-6.826667-17.066667-17.066667v-170.666666c0-10.24 6.826667-17.066667 17.066667-17.066667h68.266666c10.24 0 17.066667 6.826667 17.066667 17.066667s-6.826667 17.066667-17.066667 17.066666H853.333333v153.6c0 10.24-6.826667 17.066667-17.066666 17.066667z"/>
		<path d="M870.4 512h-34.133333c-10.24 0-17.066667-6.826667-17.066667-17.066667s6.826667-17.066667 17.066667-17.066666h34.133333c10.24 0 17.066667 6.826667 17.066667 17.066666s-6.826667 17.066667-17.066667 17.066667zM699.733333 614.4c-10.24 0-17.066667-6.826667-17.066666-17.066667v-170.666666c0-10.24 6.826667-17.066667 17.066666-17.066667h68.266667c10.24 0 17.066667 6.826667 17.066667 17.066667s-6.826667 17.066667-17.066667 17.066666H716.8v153.6c0 10.24-6.826667 17.066667-17.066667 17.066667z"/>
		<path d="M733.866667 512h-34.133334c-10.24 0-17.066667-6.826667-17.066666-17.066667s6.826667-17.066667 17.066666-17.066666h34.133334c10.24 0 17.066667 6.826667 17.066666 17.066666s-6.826667 17.066667-17.066666 17.066667z"/>
	</symbol>
	<symbol id="check_on" viewBox="0 0 1024 1024">
		<path d="M516.665253 63.961754c-247.350504 0-447.867354 200.515826-447.867354 447.867354 0 247.349481 200.515826 447.867354 447.867354 447.867354S964.531584 759.178589 964.531584 511.829108C964.531584 264.478604 764.015757 63.961754 516.665253 63.961754zM482.890009 680.672584 280.281521 494.949672l33.766035-16.878412L471.51289 588.29157l230.873228-245.306962 50.661843 0L482.890009 680.672584z"/>
	</symbol>
	<symbol id="check_off" viewBox="0 0 1024 1024">
		<path d="M512 895.2c211.7 0 383.2-171.6 383.2-383.2S723.7 128.7 512 128.7 128.8 300.3 128.8 512 300.3 895.2 512 895.2z m0 63.9C265.1 959.1 64.9 758.9 64.9 512 64.9 265 265.1 64.9 512 64.9 758.9 64.9 959.1 265 959.1 512c0 246.9-200.2 447.1-447.1 447.1z"/>
	</symbol>
	
	<symbol id="ole" viewBox="0 0 364 64">
		<path d="m20 1.6-3.5 1.5-2.1 2-2.1 2-1.7 3.7L9 14.5 4.5 38.4 0 62.3V64h163v-6.5l2-3.2 1.9-3.2 2.8-1.8 2.7-1.8 6-.5 6-.5 4.2-22 4.3-22V1.2L193 0h-84.7L23.5.1zm24.3 19.6 2.1 2.8-1.3 6.6-1.2 6.7-1.5 2.8L41 43l-3 1.5-2.9 1.5h-8l-2.2-2.2-2.1-2.3.6-5.6.5-5.5 1.3-3.9 1.3-3.9 3.5-2.4 3.4-2.3 4.5.3 4.4.3zm11.6 6L54 36.5l-.5 2.2L53 41h13v5H46.3l2.4-12.8 2.4-12.7.4-1.3.4-1.2h5.8zm37.4-6.7-.5 2.4-6.6.3-6.6.3-.7 2.7-.7 2.8h9l-.6 1.6-.6 1.6V34h-9v2.5l-.6 2.2-.6 2.3H89v2.5l-.8 1.3-.9 1.3-9-.3-9-.3L71.7 33l2.4-12.5.4-1.3.4-1.2h18.8zm9.8 2.2.1 4.8.6 5 .7 5 4.1-9.5 4.1-9.5 3.1-.3 3.2-.3V19l-6.7 13.5-6.8 13.5h-6.2l-1.1-12.3L97 21.5V18h6zM138 20l2 2v6.5l-1.4 5.9-1.4 5.9-2.5 2.5-2.5 2.5-5.1.5-5.1.5-1.6-1.4-1.6-1.3-.9-2.5-1-2.4 1.1-5.6 1.1-5.6 1.1-2.9 1.1-2.8 3.1-1.9 3.1-1.9h8.5zm22.7 3.7 5.8 4.7 1.2 1.5 1.3 1.6-.3 3-.2 2.9-3.9 2.7-3.9 2.6-4.2 2.3-4.2 2.3-2.7-.7-2.7-.7-1.1-2.5-1.2-2.5 1.2-9.5 1.1-9.5 1.2-1.5 1.1-1.4h5.7z"/>
		<path d="m31.4 26.6-1.5 3.5-.2 5.2-.2 5.2 2.6.3 2.6.3 1.5-1.5 1.5-1.5 1.2-6.1 1.2-6.1-1.2-1.5-1.1-1.4h-4.9zM126.8 24.7l-1.6 1.8-1.2 5.8-1.2 5.8 1.3 1.5 1.2 1.5 2.6-.3 2.6-.3 1.3-2.8 1.3-2.7.2-5.8.2-5.7-2.6-.3-2.5-.3zM151.6 24.8l-.4.7-.7 8.3-.8 8.2h2.3l6-3.7 6-3.8v-2.1l-5.1-4.2-5.2-4.2h-1.6zM262 16l-12.5.5-1.2 8-1.1 8-.1 2.2-.1 2.3h12.2l-.7 5.2-.7 5.3-.9 3.8-1 3.8-.5 1.3-.5 1.2 2.6 1.2 2.6 1.2h1l1.6-3.7 1.6-3.8 1.1-7.5 1.2-7.5 4.9-.3 5-.3.7-1.2.8-1.2V31h-10.9l.6-3.5.6-3.5h-7.1l-.6 3.5-.7 3.5h-5.1l.6-3.1.6-3.1V22h17.5l3.5-1.8 3.4-1.9.3-1 .4-1-2.3-.7-2.3-.6-1 .2-1 .2zM290.5 17.2l-.5 2.3-.2 4.5-.3 4.4 3 .7 3 .7-3.6.1-3.7.1-.5 2-.5 2 .7.4.7.5-1.1 6.8-1.2 6.8-.7 3.2-.8 3.3h5.1l1.5-4.8 1.6-4.7-.5 5.1-.5 5.2 2.5.4 2.5.5 1-1.2 1.1-1.3.8-4.3.9-4.4.1 4.7.1 4.7 6.3-.2 6.2-.2 3.3-6.5 3.3-6.5-3.3-.3-3.2-.4-.3.9-.3.8-3.2 5.5-3.2 5.5-.4-1.9-.4-2 1.2-7.3 1.3-7.4.8-.5.9-.5V30l-3.7-.1-3.8-.1 2.9-.7 3-.6.7-3 .7-3 .5-3.8.6-3.7H291zm11.3 6.5-1.8.4-2.2-.4-2.3-.4h4l4-.1zm-2 17-1.8.4-2.2-.4-2.3-.4h4l4-.1zM351 16v.9l-9.7-.2-9.8-.2-2.7 18-2.7 18v2.7L326 58h5.1l.3-1.3.4-1.2.6-2.8.6-2.7 2 1 1.9 1 .9-1.7 1-1.8.7-3.5.6-3.5.5-1.8.5-1.7h2.9l-.6 2.7-.6 2.8-2.5 5.3-2.5 5.3 1.2 1.4 1.2 1.5h2.6l2.8-4.8 2.8-4.7 1.3-5 1.3-5-.6 5.5-.5 5.6.7 1.7.6 1.8 2.9 1.4 2.8 1.5h1.9l1-2.9 1-2.9-1.9-.5-1.9-.5v-7.699999999999999l.8-1.1.7-1 1.8-.7 1.8-.7-.3-2.2-.3-2.3-9-.3-9-.3-1.4 1.8-1.4 1.8.6-1.6.5-1.7-.7-.8-.8-.9 1.3-3.3L343 24h6v-2h9.1l-.6 1.1-.7 1 3.3-.3 3.4-.3.3-3.3.3-3.2H357v-2h-6zm-13.9 9.1-1 2.4v-1.7l-.1-1.6.7-1.8.7-1.8.3 1 .4 1.1zM206.9 16.2l-.1.3L204 35l-2.8 18.5.8.8.8.9 7.6-.4 7.6-.3.4 1 .4 1 4-4.1 4-4.1 1.7 3.9 1.6 3.8h1.6l1.7-1.9 1.8-1.9-1.1-2-1-1.9-1-4.4-.9-4.4.6-4 .7-3.9 2.4-.6 2.5-.6.6-2.4.7-2.5.6-3.3.7-3.2h-11v-2.8l-11-.1-11-.1zm16.1 7.3V25l-2.3-.5-2.3-.6-1.2 2.3-1.1 2.3v-2.3L216 24h-4v2.3l-.5-.5-.5-.5.6-1.7.6-1.6H223zm10.3 3.5-.5 2H227v-.8l.6-1.6.6-1.6h5.6zm-22.2 12.7-1.5 3.3-.3-.4-.3-.3 1.2-7.9 1.3-7.9.5 5 .5 5zm12.5-8.7h2.5l-.7 4.7-.7 4.8-1 2-1 2-2.1 2.5-2.1 2.5-5.2-.3-5.3-.3v-2.8l1.6.6 1.6.6 1-1.6.9-1.7h1.6l.9 2 .9 2.1 1.9-1.4 1.9-1.4-1.3-3.7-1.2-3.8 1.3-4.6 1.3-4.6.4 1.2.4 1.2z"/>
		<path d="m313.6 20.6-2.6 4.7V27h6.5l1.7-3.3 1.7-3.2 1.1-2.3 1.1-2.2h-6.9zM344.7 25.7l-.7.6V30h16.8l.6-1.6.6-1.6V25h-16.700000000000003zM311.8 33l-2.8 5v1h7l2.5-5 2.5-4.9V28h-6.5zM248 40.2l-.1.3-2.2 6.7-2.3 6.7 2.3 1 2.4 1.1h1l2.4-5.3 2.3-5.2.4-2.5.3-2.5-3.2-.3-3.3-.3zM269 47.5V55h7V40h-7zM172.4 53.8l-2.2 1.7-1.1 2.2-1.1 2.2V64h12.8l.5-1.4.5-1.3.7-4.7.7-4.6h-8.7z"/>
	</symbol>
	<symbol id="ayf" viewBox="0 0 324 139">
		<path fill="#F69" d="m283.8 44.5.4 3.5h.8v-7h-1.6z"/>
		<path fill="#F99" d="m278.5 41.8-.5.5V45h6.1l-.3-1.7-.3-1.6-2.3-.2-2.2-.2z"/>
		<path fill="#99C" d="M284.1 53.7 284 55h-6v4h6.1l.5-1.4.6-1.5-.5-1.8-.5-1.8z"/>
		<path fill="#C9C" d="M278 52.5V55h5.8l.6-1.6.6-1.6V50h-7z"/>
		<path fill="#F9C" d="M278 47.5V50h6v-5h-6z"/>
		<path fill="#96F" d="m65.3 46.3 9.9 9.5L62.5 60l-12.6 4.2.3.4.4.3 13.2-4.3L77 56.3l-10.7-9.8-10.8-9.7z"/>
		<path fill="#69F" d="m50.3 65-2.3.9v1l3.3-1.1 3.2-1.1.4-.3.4-.4-1.4.1h-1.4z"/>
		<path fill="#99F" d="m55.7 36.7-.7.6v4.2L54 40l-.9-1.5.5 4 .6 4L53 45l-1.1-1.5.6 2.2.6 2.2-1.2 6.1-1.2 6.1-.9-1.3-1-1.3.6 1.8.6 1.9v2.5l2.9-.1 2.9-.1-.6-.9-.5-.9 2.1.5 2.2.6-.7-1.1-.6-1 2.1.5 2.2.6-.7-1.1-.6-1 2.1.5 2.2.6-.7-1.1-.6-1 2.1.5 2.2.6-.7-1.1-.6-1 2.1.5 2.2.6-.7-1.1-.6-1 2.1.5 2.2.6-.6-.9-.5-.9h2.5l-2.7-2.8-2.7-2.8.7-.8.7-.7-1.4.6-1.5.5-6.5-6.7-6.5-6.8 6 5.5 6 5.5-5.5-5.8-5.4-5.7h-.3z"/>
		<path fill="#F9F" d="m45 38.1-6.5 3-5.5 2.5-5.5 2.6-1 1.6-1 1.7-.1 1.6-.1 1.5-.8 4-.8 3.9-.4 1.5-.4 1.5-.6 3.5-.5 3.5L21 72l-.7 1.5.4 1.2.4 1.1 6.2-1.8 6.2-1.8 4.5-1.6 4.5-1.6 1.5-.7 1.5-.6.7.1.7.2-.5-1.5-.6-1.5h2.4l-.6-2.5L47 60h2l-.6-2.5-.6-2.5H50l-.6-2.5-.6-2.5H51l-.6-2.6-.7-2.7 1.3.8 1.3.8-.7-2.6-.6-2.5 1-.4 1-.3-.8-2.7-.7-2.7z"/>
		<path fill="#3CF" d="M284 65.8V67h-6v4h6l.6-2.5.6-2.6-.6-.6-.6-.6z"/>
		<g fill="#6CF"><path d="m76 62.3-1.3 2.2-.5-1.3-.4-1.2-1 .6-1 .7-.7-1.2-.7-1.1-3.2 1.1-3.2 1.1-1.6-.6-1.5-.6.7 1.2.7 1.1-2.1-.5-2.2-.6.7 1.1.6 1-2.1-.5-2.2-.6.7 1.1.6 1-2.1-.5-2.2-.6.6 1 .7 1-2.2-.7-2.1-.6v2.2l-1-.6-.9-.6-1.1 3.9-1 3.9-2.1 10.2-2.1 10.3.6.5.5.5L54.7 92l12.8-4.3 1.2-1.5 1.2-1.5 4-12L78 60.6l-.3-.2-.3-.3zM278 64v3h6v-6h-6z"/></g>
		<path fill="#9CF" d="m278.5 60-.6 1h6.1v-2h-4.9z"/>
		<g fill="#6FF"><path d="m66.9 45.6 9.4 8.9 1.4.8 1.5.9.2-.4.2-.3 2.2-6.5 2.2-6.5-1.4 1.8-1.4 1.9-8.9-2.7-8.8-2.7-1.5-1.2-1.5-1.3-1.5-.8-1.5-.8zM64.2 61.8l-13.3 4.4.3.4.4.3L61 64l9.4-3 .7 1.1.7 1.2 1-.7 1-.6.4 1.2.5 1.3 1.7-2.7 1.8-2.7-.4-.9-.3-.9z"/></g>
		<path fill="#9FF" d="m85.5 18.5-5 2.4-12.2 5.8L56 32.5v3.1l4.1 2.7 4.1 2.7 8.5 2.6 8.5 2.6 1.3-1.9 1.4-1.8 4.1-12 4.2-12 .5-1.3.5-1.2-1.4.1-1.3.1z"/>
		<path d="M167 28v1h-48v7h4v3.1l-2.4 2.2-2.5 2.2-.6 7.2-.7 7.3h7.9l-1.8 7.2-1.8 7.3-2.1 1.7-2 1.6V82h2.1l2.9-1.5 2.9-1.5 1-1.7 1-1.8.1 2.7V81h9.1l6.7-1.5 6.8-1.6 4.4 1.6 4.5 1.6 7.8.6 7.7.6V75h-10.5l-1.3-.9-1.4-.8 3.1-1.1 3.2-1.1L170 69l3-2.1v-5.8l-1.2-.8-1.3-.8-20-.5-20-.6 21.8-.2L174 58V43.3l-1.8-1.6-1.9-1.7H168v-3.4l2.5-2.1 2.4-2 .7-2.8.6-2.7H167zm-25 10v2h-12v-4h12zm19 0v2h-12v-4h12zm6.3 11 .5 2H133v-2h-7v2h-1.8l.5-2 .5-2h41.6zm-31.8 20.4 4.5 3.5-1.8.5-1.7.5-4.2.6-4.3.7v-1.7000000000000002l1.1-3.8 1-3.7h.9zm21-1.4-4 1.9h-2l-2 .1-3-2-3-2 9 .1h9zM204 28v1h-25v6l12.8.2 12.7.2-11.7.3-11.8.4V42h53v-5.9l-11.7-.4-11.8-.3 12.3-.2L235 35v-6h-24v-2h-7zM249.3 29.4l.6 1.4-2.7.7-2.7.7-1.7 1.5-1.8 1.6V79h7V39h1.5l-.3 21.5-.3 21.5h8.1l.2-21.8.3-21.7.2 20.2.3 20.3h6.9l.3 1.5.3 1.5 3.3-2 3.3-2 1.6-3.8 1.6-3.7.6-17.5.6-17.5h10l.5 20.7.5 20.7 2 2.1 2 2 3.3.6 3.2.7v-8.1l-2-.5-2-.5V32.1l-2.6-2-2.7-2.1h-14.4l-2.7 2.1-2.6 2V67l-1.4 3.7-1.5 3.8-.4 2-.5 2-.1-22.1-.1-22.2-1.3-1-1.2-1-2.8-.7-2.7-.7V28h-8.2zM181 44.5l-1.2 1.4-.5 4.1-.6 4h2.3v3h53v-3h2.3l-.6-4-.5-4.1-1.2-1.4-1.2-1.5h-50.6zm47.5 5.5.6 1h-43.2l.6-1 .6-1h40.8zM185 58.6l-1.5.6-1.2 1.6-1.3 1.6v5.699999999999999l1 2 1.1 1.9h4.9v2h-9v7h56v-7h-8v-2h4.6l1.2-1.2 1.2-1.2v-8.4l-1.2-1-1.3-1-22.5-.6-22.5-.6zm43 6.9V67h-41v-3h41zm-8 7.5v1h-25v-2h25zM254.6 108.5l-.5 1.5H248v2.9l2.5.3 2.6.3-3.1 4.2-3.1 4.3.6 1 .7 1.1 1.4-.5 1.4-.5v5.9h19v-4h-7v-4h6v-3h-6v-5h7v-3h-12v-3h-2.8zm5.4 7v2.5h-5.2l.6-1.6.6-1.6V113h4zm0 7.6v1.9h-6v-4.699999999999999l3 .5 3 .4zM15.4 110.8l-3.1 2.7-1.9 1.2-1.9 1.2 1.9 1.6 2 1.5 3 .1 3.1.2-3.5.6-3.5.6v3l3.5.4 3.5.5-4.5.5-4.5.6v3l10.8.3 10.7.3V125l-4.7-.2-4.8-.1 3.8-.4 3.7-.4V120l-3.7-.1-3.8-.1 1-.3 1-.3 3.8-.7 3.7-.6v-2.4l-5.1-3.8-5-3.7h-1.2l-1.2.1zm8.1 3.2 1.8 2h-9.6l1.8-2 1.8-2h2.4zM70 110v2h-4.9l.5-1.5.6-1.5H57v3h2v4h-2v3h2v4.300000000000001l-1.5 1.1-1.5 1.1.9 1.4.9 1.4 4.1-1 4.1-1.1v2.8h7v-5.4l1.6 2.2 1.5 2.2h2l.6-1.6.6-1.5-2.2-2.3-2.2-2.3 1.5-.6 1.6-.6v-3.3l-2.5.6-2.5.6v-2h6v-3h-2.3l.6-.7.7-.6-1.1-1.4-1.1-1.3H70zm-4.8 11.8-1.7 1.3-.3-1.7-.4-1.7 1.3-.8 1.3-.8.8 1.2.8 1.2zM107.4 111.5l-3.1 3.4.8 1.2.7 1.2 1-.7 1-.6.4 2.5.5 2.4-2.1.3-2.1.3v3l4.8.3 4.7.3v3.9h3v-4h10v-4h-2l1-2.6 1-2.5V114h-3.8l-.5 2-.5 2H119v-2.9l3-1.7 2.9-1.8.5-1.3.5-1.3h-3l-2 1-1.9 1.1V108h-4v4.9l-1 .6-1 .6-1.1-.7-1.1-.6 1.1-1.1 1.1-1.1V108l-1.2.1h-1.3zm7 7.9-.6 1.6H111v-.9l1.6-1.6 1.6-1.6.4.4.4.4zM161 113.7l-1.3 5.8-3.8 3.9-3.9 3.8v1.8h4.699999999999999l2-2.3 2.1-2.2 1.5-2.9 1.4-3 .7 2.2.7 2.2 2.6 3 2.5 3h4.8v-2l-3.8-3.5-3.9-3.4-1.1-3.9-1.2-3.9V108h-2.7zM205 109.5v1.5h-4v2h4v2h-5v2h2.8l2.7.1-2.7 1.5-2.8 1.5v2.9h2v5.6l7.5.2 7.5.1v-1.8l2.3-.3 2.2-.3-.2-4.5-.2-4.5-.1-1.5-.1-1.5.7-2.9.7-2.8-4.9.5-4.9.4-2.2.8-2.3.7V108h-3zm14 12.1v1.4h-2v-4.1l1 .6 1 .6zM298.2 108.9l-.9.6-.7 4.2-.6 4.3h3.3l-1.6 1.8-1.7 1.9v3.3h1.6l1.2-1.2 1.2-1.2v6.4h16v-10.6l1-1 .9-.9-.5-2.2-.6-2.2-4.7-.4-4.6-.3 4.8-.2 4.7-.2v-3.1l-9 .2-9 .3z"/>
	</symbol>
	<symbol id="ddz" viewBox="0 0 387 60">
		<g fill="#FC0"><path d="m201.7 8.5-1.7 3.6V14h11v3h-12v5h6v1.9l-2.6 2-2.5 2-1.1.3-1.1.4 1.2 2.2 1.2 2.2h1.9l3.8-2.5 3.7-2.5 1.8-3 1.8-3h1.9v5.9l1.6 1.5 1.5 1.6 1.2.1 1.2.2-7.4.7-7.4.6-1.8 2.3-1.9 2.3V47h6v-7.6l1.2-1.2 1.2-1.2H223v3.7l-2 2.5-2 2.6-3.8 1.5-3.8 1.5-6.2 1.2-6.2 1.3V56h3.5l6.7-1.5 6.8-1.4 4.6-2 4.6-2.1 14.4 3.6 14.5 3.7.3-.4.4-.4.6-2.1.7-2.2-13.3-3.2-13.3-3.3-.6-.3-.5-.3.4-3.5.4-3.6h14.4l1.2 1.2 1.2 1.2V47h6v-9.8l-1.9-2.3-1.8-2.3-7.7-.5-7.6-.6 2.8-1.9 2.9-1.9 1.9-2.9 1.9-2.8h1.5v5.5l.8 1.1.7 1.1 2.2 1.2 2.2 1.1h7.1v-4.9l-3.2-.3-3.3-.3-.3-2.3-.3-2.2h7.1v-5h-11v-3h10V9h-10V5h-6v4h-2.9l.5-1.4.5-1.3-2.3-.7-2.3-.6h-2.3l-1.6 4-1.6 4v1h12v3h-23v-3h10V9h-10V5h-6v4h-2.9l.5-1.4.5-1.3-2.3-.7-2.3-.6h-1.1zm30.3 16-2.4 2.6-4.1-.3-4-.3-.3-2.3-.3-2.2h13.4zM19 21.7l-3.5 1.8-2.3 3.5-2.4 3.5.4 5.3.5 5.3 3.6 3.6 3.6 3.6 5.3.4 5.3.4 3.2-2 3.2-2 1.6-2.5 1.7-2.5.5-3.9.5-3.9-1.7-3.7-1.7-3.6-3-2.2-3-2.1-4.1-.4-4.2-.4z"/></g>
		<g fill="#6CF">
			<path d="M15.3 2 11 4.2 8 7.6l-3 3.5-2.2 4.2-2.2 4.2-.4 9.2-.4 9.1 2.4 5.4 2.5 5.4 3.2 3.6 3.2 3.7 4.5 2.1 4.5 2.2 6.7-.4 6.7-.3 4.6-3.2 4.6-3.2 3.1-4.8 3.1-4.8 1.2-4.8 1.2-4.9-.6-7.3-.5-7.4 1.4-1.2 1.4-1.1v-5.5l-2.3-2.1L48.4 7h-5.5l-4.7-3.2L33.5.5l-7-.3-7-.3zm14.9 3 3.7 1.1 2.9 2.4 2.9 2.4-.4 2.8-.4 2.8 2 2 2 2 1.7 1.4 1.6 1.4-.4 8.1-.5 8.1-2.1 4.1-2.1 4.1-3.5 3.1-3.6 3.1-4.1 1.1-4.2 1.2-3.9-1-3.9-1-3.4-2.3-3.3-2.3-2.6-3.9-2.5-4-1.2-5.5-1.1-5.4.7-4.7.7-4.6 1.8-4 1.7-4 3.5-3.3 3.5-3.3 3.9-1.4 3.9-1.4L25 4h1.5zM53.1 1.4l-1.3 1.5.4 1.7.3 1.7 1.8 1.1L56 8.5l1.8-1.1 1.7-1.1V.5L56.9.2l-2.6-.3zM68 7.5V10h26v13h-3.7l-3.4-1.1-3.4-1.2-1.8-1.6-1.8-1.5.6-3.3.6-3.3h-5.8L74 15.6l-1.3 4.6-2.4 3.5-2.4 3.5 1.2 1.4 1.1 1.4H74l1.7-2.8 1.7-2.7.2-.3.2-.3 3 1.5 2.9 1.5 5.1.7 5.2.7v3.5l-10.1.4-10.1.3-1.4 1.9-1.4 2V43l2 2 2 2h19v4H68v5.1l27.1-.3 27.1-.3 1.9-2.4 1.9-2.3V46h-5.1l1.1-1.9 1-2v-5.6l-.8-1.1-.7-1.1-2.2-1.2-2.2-1.1H100v-4h26v-5h-26v-3h24.1l-.2-3.3-.2-3.2 1.6-3.2 1.7-3.2V5H68zm49.6 5-.1 2.5H100v-5h17.8zM94 39.5V42H78.1l-.6-1-.7-1.1.6-1.4.5-1.5H94zm22.5 0v2l-8.2.3-8.3.3v-5.2l8.3.3 8.2.3zm2.5 10-1.2 1.5H100v-3.9l9.8-.3 9.7-.3.3.8.4.8zM134 7.5V10h26v13h-3.7l-3.4-1.1-3.4-1.2-1.8-1.6-1.8-1.5.6-3.3.6-3.3h-5.8l-1.3 4.6-1.3 4.6-2.4 3.5-2.4 3.5 1.2 1.4 1.1 1.4h3.8l1.7-2.8 1.7-2.7.2-.3.2-.3 3 1.5 2.9 1.5 5.1.7 5.2.7v3.5l-10.1.4-10.1.3-1.4 1.9-1.4 2V43l2 2 2 2h19v4h-26v5.1l27.1-.3 27.1-.3 1.9-2.4 1.9-2.3V46h-5.1l1.1-1.9 1-2v-5.6l-.8-1.1-.7-1.1-2.2-1.2-2.2-1.1H166v-4h26v-5h-26v-3h24.1l-.2-3.3-.2-3.2 1.6-3.2 1.7-3.2V5h-59zm49.6 5-.1 2.5H166v-5h17.8zm-23.6 27V42h-15.9l-.6-1-.7-1.1.6-1.4.5-1.5H160zm22.5 0v2l-8.2.3-8.3.3v-5.2l8.3.3 8.2.3zm2.5 10-1.2 1.5H166v-3.9l9.8-.3 9.7-.3.3.8.4.8zM264.7 6.8 263 8.7v11l1.8 1.6 1.7 1.6 5.5.4 5.5.3-8.2.2-8.3.2v5h37v-5l-7.7-.2-7.8-.2 5-.3 5-.4 1.7-1.6 1.8-1.6V8.3l-1.8-1.6-1.9-1.7h-26zm20.6 3.9-5.2.4-5.8-.4-5.8-.3h22zM290 17v1h-21v-2h21zM332.3 6l-2.2.9-1 2-1.1 2V56h6V11l2.5-.6 2.5-.6 2.5.6 2.5.6v12.6l-1.2 1.2-1.2 1.2H336v5h4.8l1.6.6 1.6.6v13.4l-1.2 1.2-1.2 1.2H336v5.300000000000001l5.2-.5 5.2-.5 1.9-2.4 1.8-2.3-.5-9-.4-9.1v-2l.4-8.6.5-8.5-1.9-2.4-1.9-2.4-5.9-.3-5.9-.3zM367 6.4v1.4l-6.1.4-6.2.4-1.8 2.3-1.9 2.3V18h6v-3.8l1.6-.6 1.6-.6h18.6l1.6.6 1.6.6V18h5v-6.8l-1.6-1.3-1.5-1.2-5.5-.5-5.4-.4V5h-6zM310.5 9l-3 3.2-4.3 2.5-4.3 2.5.4 1.1.3 1.1 1.6.9 1.5 1 4.6-2.3 4.6-2.3 4.2-4.3 4.3-4.4-.5-.5-.5-.5-3-.6-2.9-.5zM310.6 24.9l-3.9 4-4.3 2.3-4.4 2.3v.5l.1.5 1.5 2 1.5 2 4.4-2.4 4.4-2.3 4.1-3.5 4-3.5 1.1-2 1.1-2.1-1.3-.8-1.4-.9h-3.1zM352 23.5V26h35v-5h-35z"/>
			<path d="m265.7 31.8-1.7 1.9v7.1l1.4 1.1 1.5 1.2-3.1 5.2-3 5.1 1.8 1.3 1.8 1.3h2.4l2.7-4.6 2.7-4.5-.6-1.5-.5-1.4h6l-.3 3.2-.3 3.3-2.2.3-2.3.3V56h5.1l2.2-1.1 2.2-1.2.7-1.1.8-1.1V44h3.9l-.5 1.4-.5 1.3 2.8 4.7 2.8 4.6h2l1.4-.9 1.4-.9 1.7 1 1.7 1.1 4.9-2.9 4.9-2.8 5.8-5.8 5.7-5.9V37l-2.4-1.1-2.4-1.1-6.3 6.4-6.4 6.5-3.3 1.7-3.3 1.7-.9-.6-1-.6-1.6-3.1-1.5-3 1.5-1.7 1.6-1.8v-7l-1.8-1.6-1.9-1.7h-24zM289 37v2h-19v-4h19zM351 33.5V36h8v2.2l-2.6 5.2-2.5 5.1-2.1 2.2-2.1 2.2 1.3 1.6 1.3 1.6 2.1-.3 2-.3 3.9-5.5 3.8-5.5 1.1-4.2 1-4.3h6.8v14.8l1.8 2.2 1.8 2.3 5.2.5 5.2.5V51h-5.6l-1.2-1.2-1.2-1.2V36h8v-5h-36z"/>
		</g>
	</symbol>
	<symbol id="ydq" viewBox="0 0 143 50">
		<g fill="#900"><path d="M36 33.5c0 .3.2.5.5.5s.5-.2.5-.5-.2-.5-.5-.5-.5.2-.5.5M29 38.5c0 .3.2.5.5.5s.5-.2.5-.5-.2-.5-.5-.5-.5.2-.5.5"/></g>
		<g fill="red"><path d="m21.4 11.2-.7 1.1 1.1-.7c1.2-.7 1.6-1.6.8-1.6-.3 0-.8.5-1.2 1.2M32 13.5c0 .3.2.5.5.5s.5-.2.5-.5-.2-.5-.5-.5-.5.2-.5.5M42.5 21c.3.5.8 1 1.1 1s.2-.5-.1-1c-.3-.6-.8-1-1.1-1s-.2.4.1 1M36 21.5c0 .3.2.5.5.5s.5-.2.5-.5-.2-.5-.5-.5-.5.2-.5.5M36 28.5c0 .3.2.5.5.5s.5-.2.5-.5-.2-.5-.5-.5-.5.2-.5.5M42.4 29.2l-.7 1.1 1.1-.7c1.2-.7 1.6-1.6.8-1.6-.3 0-.8.5-1.2 1.2"/></g>
		<g fill="#C33">
			<path d="M18 12.5c0 .3.2.5.5.5s.5-.2.5-.5-.2-.5-.5-.5-.5.2-.5.5M32 18.5c0 .3.2.5.5.5s.5-.2.5-.5-.2-.5-.5-.5-.5.2-.5.5M35.3 21.7l-2.3.4.3 2.1.2 2-5.5 3.5c-3 2-4.9 2.9-4.2 2l1.3-1.6-.3-3.8-.3-3.8-1.8-.3-1.9-.4.4 6.1c.1 3.4 0 6.1-.4 6.1-.5 0-.8-2.7-.8-6.1v-6.1l-1.2.4-1.3.5v14.8l2.3.3c1.3.2 3.1-.2 4-.9l1.7-1.3-1.2 1.4c-.7.8-1.3 1.8-1.3 2.2s1 .8 2.3.8l2.2-.1 8-5.7 8-5.8v-5.9l-1.9-.3-1.9-.4.6 1.4c.3.8.2 1.9-.1 2.4-.4.5-1.6 1.6-2.7 2.4l-2 1.5 1.3-1.6c.6-.9 1.1-2.8 1-4.3-.1-1.4-.3-2.5-.3-2.5 0 .1-1 .4-2.2.6M34 30.5c0 .3-.2.5-.5.5s-.5-.2-.5-.5.2-.5.5-.5.5.2.5.5m-3 1.9c0 .3-.5.8-1.2 1.2l-1.1.7.7-1.1c.7-1.2 1.6-1.6 1.6-.8m-3 2c0 .3-.5.8-1.2 1.2l-1.1.7.7-1.1c.7-1.2 1.6-1.6 1.6-.8"/>
			<path d="M31 22.5c0 .3.2.5.5.5s.5-.2.5-.5-.2-.5-.5-.5-.5.2-.5.5"/>
		</g>
		<g fill="#F33">
			<path d="M29 11.5c0 .3.2.5.5.5s.5-.2.5-.5-.2-.5-.5-.5-.5.2-.5.5M19 12.5c0 .3.2.5.5.5s.5-.2.5-.5-.2-.5-.5-.5-.5.2-.5.5M33.5 15c.3.5.8 1 1.1 1s.2-.5-.1-1c-.3-.6-.8-1-1.1-1s-.2.4.1 1M24 16.1v1.1l-1.5-.6-1.5-.5v5.699999999999999l2 .5 2 .5v-2.3c0-1.3.3-3 .6-3.9l.6-1.6h-1.1c-.6 0-1.1.5-1.1 1.1"/>
			<path d="M35 17c-.8.5-1.9.6-2.5.3-.5-.4-.1.4 1 1.7l2 2.2-3.5-2.1C30.1 18 27.9 17 27.3 17c-2.3 0-1.4 1.8 1.9 3.8l3.1 2 2.5-.9 2.5-1 .6.8c.3.5 1.8.9 3.3.8h2.6l-1-1.3c-.6-.7-2.3-2.1-3.8-3.2l-2.6-1.9zM17.7 17.7c-.4.3-.7 1.7-.7 2.9v2.3l1.5-.5 1.5-.6v-2.4c0-2.3-1-3.1-2.3-1.7M33 30.5c0 .3.2.5.5.5s.5-.2.5-.5-.2-.5-.5-.5-.5.2-.5.5"/>
		</g>
		<g fill="#C06"><path d="M26 30.5c0 .3.2.5.5.5s.5-.2.5-.5-.2-.5-.5-.5-.5.2-.5.5M39 31.5c0 .3.2.5.5.5s.5-.2.5-.5-.2-.5-.5-.5-.5.2-.5.5"/></g>
		<g fill="#C36"><path d="M40 24.5c0 .3.2.5.5.5s.5-.2.5-.5-.2-.5-.5-.5-.5.2-.5.5M31 27.5c0 .3.2.5.5.5s.5-.2.5-.5-.2-.5-.5-.5-.5.2-.5.5M29 33.5c0 .3.2.5.5.5s.5-.2.5-.5-.2-.5-.5-.5-.5.2-.5.5"/></g>
		<g fill="#F36"><path d="M22.2 11.2c-1.5 1.5-1.6 4.5-.1 5.3l1 .7 1.4-1.8 1.4-1.9 1.3 1.4 1.3 1.4-1.1-.6-1.2-.7-.5 1.3-.4 1.2h4.5l-.5-1c-.2-.6.3-.1 1.1.9l1.6 2v-1.2c0-.7.3-1.1.8-1.1.4.1 1.3.1 2.1 0l1.4-.1-4.4-3.5-4.4-3.5h-2c-1.2 0-2.6.5-3.3 1.2M17 15.5v2.4l1.5-.5 1.5-.6V13h-3zM28 20.5c0 .3.2.5.5.5s.5-.2.5-.5-.2-.5-.5-.5-.5.2-.5.5M34 20.5c0 .3.2.5.5.5s.5-.2.5-.5-.2-.5-.5-.5-.5.2-.5.5"/></g>
		<path fill="#666" d="M52.7 15.7c-.4.3-.7 1.9-.7 3.5V22h-2.1l.5 1.7c.5 1.6 0 4.4-1.5 10.2l-.4 1.4 2.5.2c1.4.2 3.5-.3 4.7-1.1l2.2-1.3.3 1c.2.6 1.8 1.1 3.5 1.1l3.2.1 4.1-3.6c2.2-2.1 4.2-3.7 4.5-3.7s.2 1.8-.1 4l-.7 4h4.1l.6-3.5.7-3.5h2.4c1.4 0 2.5.3 2.5.7s-1 1.7-2.2 3-1.9 2.6-1.6 2.9c.4.3 1.5.1 2.6-.5l2-1.1 4.8.9 4.8.9 3.1-1.5c1.6-.8 4.2-2.6 5.6-3.9l2.5-2.4 1.3 2.3c.7 1.3 2.5 3 3.9 3.8l2.7 1.4 11.8-.3 11.7-.3V33h-8.9l.5-1.5.6-1.5h6.8v-2h-7v-1c0-1.2 1-1.6 6.4-2.5l3.9-.6-3.7-3.6c-2-1.9-3.6-3.9-3.6-4.4s-1.1-.9-2.3-.9h-2.4l-1.8 2c-1 1.2-3.4 3-5.3 4.2l-3.4 2.1 1.4.8c.7.5 2.5.9 4.1.9h2.7v3h-3.4c-1.9 0-3.8.4-4.1 1l-.6 1h8l-.5 1.4-.5 1.4-5.1.4-5.1.3-2.3-3.5c-1.3-1.9-2.4-4.5-2.4-5.7V22h9v-2h-9.2l.6-2.6.7-2.5-2.3.3-2.3.3-.3 2.2-.3 2.3H95v2h8.1l-1.5 2.9c-.8 1.5-3.1 4.2-5 5.9l-3.5 3-1.9-.5-2-.5.5-1.9c.3-1 1.1-1.9 1.8-1.9 1.4 0 2-1.8 3-9.3l.7-4.7H83v3h-3v-3h-4v3h-1.5c-2.3 0-1.8 1.8.7 2.2l2.2.3-3.3 3.7c-1.8 2.1-4 3.8-4.9 3.8h-1.5l2.1-2.3c1.2-1.3 2.2-2.6 2.2-3s-.7-.7-1.6-.7h-1.5l2-2.6c1.2-1.5 2.1-3.1 2.1-3.5 0-.5-.8-.9-1.7-.9s-2.9 1.5-4.5 3.2l-2.9 3.3.6-3.3.7-3.2h-6c-3.2 0-6.2.3-6.5.7m6.6 2c-.7.2-1.9.2-2.5 0l-1.3-.5h5zm31 0c-.7.2-1.9.2-2.5 0l-1.3-.5h5zm39.2 3.3 1.8 2h-8.5l2.3-2c1.3-1 2.4-1.9 2.5-2 0 0 .9.9 1.9 2M82 22v2h-3l1.2-2c.7-1.1 1.4-2 1.5-2 .2 0 .3.9.3 2m-14 .3c0 .2-1.1 1.4-2.5 2.7L63 27.3v-3.4l2.3-.9c2.7-1.1 2.7-1.1 2.7-.7M59 27c0 .5-.9 1-2 1s-2-.5-2-1c0-.6.9-1 2-1s2 .4 2 1m8 1.3c0 .2-1.1 1.4-2.5 2.7L62 33.3v-4.2l2.3-.4c1.2-.2 2.3-.5 2.5-.6.1 0 .2 0 .2.2"/>
		<g fill="#C66"><path d="M25.5 19c.3.5.8 1 1.1 1s.2-.5-.1-1c-.3-.6-.8-1-1.1-1s-.2.4.1 1M33 19.5c0 .3.2.5.5.5s.5-.2.5-.5-.2-.5-.5-.5-.5.2-.5.5"/></g>
	</symbol>
	<symbol id="th e" viewBox="0 0 1024 1024">
		
	</symbol>
	
	<symbol id="th e" viewBox="0 0 1024 1024">
		
	</symbol>
</svg>